<svg xmlns="http://www.w3.org/2000/svg" viewBox="0 0 272.83 242.8"><defs><style>.cls-1{fill:#f0f8fa;}.cls-2{fill:#fff;}.cls-3,.cls-30{fill:#009fb1;}.cls-4{fill:#ebebeb;}.cls-5{fill:#ececec;}.cls-6{fill:#ededed;}.cls-7{fill:#eee;}.cls-8{fill:#efeeee;}.cls-9{fill:#efefef;}.cls-10{fill:#f0f0f0;}.cls-11{fill:#f1f1f1;}.cls-12{fill:#f2f2f2;}.cls-13{fill:#f3f2f3;}.cls-14{fill:#f3f3f3;}.cls-15{fill:#f4f4f4;}.cls-16{fill:#f5f5f5;}.cls-17{fill:#f6f6f6;}.cls-18{fill:#f7f6f7;}.cls-19{fill:#f7f7f7;}.cls-20{fill:#f8f8f8;}.cls-21{fill:#f9f9f9;}.cls-22{fill:#fafafa;}.cls-23{fill:#fbfafb;}.cls-24{fill:#fbfbfb;}.cls-25{fill:#fcfcfc;}.cls-26{fill:#fdfdfd;}.cls-27{fill:#fefefe;}.cls-28{fill:#999898;}.cls-29{fill:none;}.cls-30{fill-rule:evenodd;}</style></defs><g id="Layer_2" data-name="Layer 2"><g id="Layer_1-2" data-name="Layer 1"><g id="Acess_denied" data-name="Acess denied"><g id="Background"><rect class="cls-1" x="-9.38" y="36.92" width="208.66" height="54.11" rx="27.06" transform="translate(-19.03 53.13) rotate(-28.53)"/><rect class="cls-1" x="43.05" y="73.18" width="224.7" height="54.11" rx="27.06" transform="translate(-29.01 86.41) rotate(-28.53)"/><rect class="cls-1" x="31.67" y="154.06" width="199.08" height="54.11" rx="27.06" transform="translate(-70.58 84.68) rotate(-28.53)"/></g><g id="Access_denied" data-name="Access denied"><g id="Dame"><path class="cls-2" d="M70.46,230.18c-14.43,5.58-25.1,9.67-26.9,9.48h113c-1.8.19-12.47-3.9-26.9-9.48-9.48-3.67-8-13-9.48-27.62h0a91.87,91.87,0,0,0,10.68-21.08l0,.11a6.66,6.66,0,0,0,7.94-5.05,6.54,6.54,0,0,0-4.18-7.16,75,75,0,0,0,2.55-17.16c0-14.92-7.89-27.72-20-34h0c1.32-10.79-7.84-19.33-17.52-19.33s-18.6,7.62-17.31,19.33h0a37.69,37.69,0,0,0-20.17,33.86,76.86,76.86,0,0,0,2.53,17.17,6.58,6.58,0,0,0-4.61,7.31,6.66,6.66,0,0,0,7.94,5.05L67.64,179c2.83,8.41,6.75,16.95,11.6,23.72h0C79.24,218.8,79.94,226.51,70.46,230.18Z"/><path class="cls-3" d="M156.46,240.16c-2.22,0-11.75-3.62-27-9.52-8-3.1-8.48-10-9.19-20.44-.16-2.4-.33-4.88-.61-7.59l1-.1c.27,2.73.44,5.22.61,7.62.68,10.07,1.13,16.71,8.55,19.58,12.24,4.74,24.9,9.64,26.67,9.45l.11,1Z"/><path class="cls-3" d="M43.67,240.16H43.5l.11-1c1.79.21,14.43-4.71,26.67-9.45,8.52-3.3,8.5-9.74,8.46-23.85v-3.11h1v3.11c0,14.14.07,21.24-9.1,24.78C55.42,236.54,45.89,240.16,43.67,240.16Z"/><path class="cls-3" d="M99.9,216.61h0c-23.34,0-38.14-45.39-38.14-64.55,0-21.62,16.76-38.56,38.14-38.56,21.18,0,37.77,17,37.77,38.72,0,8.4-3.25,24.22-10.38,39.1C119.46,207.63,109.73,216.61,99.9,216.61Zm0-102.11c-20.82,0-37.14,16.5-37.14,37.56,0,8.51,3.43,24.43,10,38.4,4.4,9.39,13.78,25.15,27.15,25.15h0c12.72,0,22-15.48,26.47-24.72,7.07-14.74,10.29-30.38,10.29-38.67C136.66,131.07,120.51,114.5,99.89,114.5Z"/><path class="cls-3" d="M66.75,182.22a7.51,7.51,0,0,1-4-1.16,6.62,6.62,0,0,1-1.8-9.65,7.6,7.6,0,0,1,4.75-2.93l.18,1A6.59,6.59,0,0,0,61.72,172a5.61,5.61,0,0,0,1.53,8.2,6.61,6.61,0,0,0,4.77.89l.19,1A8.11,8.11,0,0,1,66.75,182.22Z"/><path class="cls-3" d="M132.21,182.22a7.91,7.91,0,0,1-1.45-.14l.18-1a6.6,6.6,0,0,0,4.77-.89,5.61,5.61,0,0,0,1.53-8.2,6.59,6.59,0,0,0-4.13-2.55l.19-1a7.58,7.58,0,0,1,4.74,2.93,6.63,6.63,0,0,1-1.79,9.65A7.57,7.57,0,0,1,132.21,182.22Z"/><path class="cls-3" d="M69.41,169.9l-.86-.51a36.41,36.41,0,0,0,3-7.14c1.34-3.89,2.61-7.56,6.29-9.85,5.78-3.59,8.78-4.28,18.91-4.35,16.94-.12,18.62-6.41,19.33-9.1.23-.86.43-1.6,1.16-1.6,1.64,0,13.18,6.17,13.18,31.07h-1c0-23.32-10.37-29.85-12.1-30.07a5.57,5.57,0,0,0-.27.86c-.77,2.91-2.59,9.71-20.29,9.84-10,.07-12.75.7-18.39,4.2-3.38,2.1-4.54,5.45-5.87,9.33A38.42,38.42,0,0,1,69.41,169.9Z"/><ellipse class="cls-3" cx="84.86" cy="173.23" rx="2.62" ry="3.83"/><ellipse class="cls-3" cx="114.66" cy="173.23" rx="2.62" ry="3.83"/><path class="cls-3" d="M89.74,166.5c-2.4-2.19-7.32-2.31-9.57-.23l-.68-.74c2.63-2.42,8.14-2.31,10.92.23Z"/><path class="cls-3" d="M99.85,187.2A5,5,0,0,1,96,185.33l.77-.62A4,4,0,0,0,100,186.2a3.45,3.45,0,0,0,2.76-1.52l.84.54a4.42,4.42,0,0,1-3.55,2Z"/><path class="cls-3" d="M119.45,166.34c-2.4-2.18-7.32-2.3-9.57-.23l-.68-.73c2.63-2.43,8.14-2.31,10.92.23Z"/><path class="cls-3" d="M100,201a7.65,7.65,0,0,1-5-1.74l.67-.74c2.08,1.89,6.33,2,8.27.2l.68.74A6.81,6.81,0,0,1,100,201Z"/><path class="cls-3" d="M100.24,195.5c-5.45,0-7.28-.46-9.82-2.46l.62-.78c2.21,1.74,3.68,2.24,9.2,2.24,4.6,0,6.46-.42,8.29-1.89l.63.78C106.9,195.2,104.58,195.5,100.24,195.5Z"/><path class="cls-3" d="M117.73,118.26l-1-.13a16.17,16.17,0,0,0-4-12.8,17.69,17.69,0,0,0-13-6A17.23,17.23,0,0,0,86.85,105a16.39,16.39,0,0,0-3.95,13.17l-1,.11a17.63,17.63,0,0,1,4.2-14,18.21,18.21,0,0,1,13.6-5.93,18.65,18.65,0,0,1,13.73,6.3A17.15,17.15,0,0,1,117.73,118.26Z"/></g><circle class="cls-4" cx="230.19" cy="150.52" r="42.13"/><circle class="cls-5" cx="230.19" cy="150.52" r="41.86"/><circle class="cls-6" cx="230.19" cy="150.52" r="41.59"/><circle class="cls-7" cx="230.19" cy="150.52" r="41.32"/><circle class="cls-8" cx="230.19" cy="150.52" r="41.05"/><circle class="cls-9" cx="230.19" cy="150.52" r="40.78"/><circle class="cls-10" cx="230.19" cy="150.52" r="40.51"/><circle class="cls-11" cx="230.19" cy="150.52" r="40.24"/><circle class="cls-12" cx="230.19" cy="150.52" r="39.97"/><circle class="cls-13" cx="230.19" cy="150.52" r="39.7"/><circle class="cls-14" cx="230.19" cy="150.52" r="39.43"/><circle class="cls-15" cx="230.19" cy="150.52" r="39.15"/><circle class="cls-16" cx="230.19" cy="150.52" r="38.88"/><circle class="cls-17" cx="230.19" cy="150.52" r="38.61"/><circle class="cls-18" cx="230.19" cy="150.52" r="38.34"/><circle class="cls-19" cx="230.19" cy="150.52" r="38.07"/><circle class="cls-20" cx="230.19" cy="150.52" r="37.8"/><circle class="cls-21" cx="230.19" cy="150.52" r="37.53"/><circle class="cls-22" cx="230.19" cy="150.52" r="37.26"/><circle class="cls-23" cx="230.19" cy="150.52" r="36.99"/><circle class="cls-24" cx="230.19" cy="150.52" r="36.72"/><circle class="cls-25" cx="230.19" cy="150.52" r="36.45"/><circle class="cls-26" cx="230.19" cy="150.52" r="36.18"/><circle class="cls-27" cx="230.19" cy="150.52" r="35.91"/><circle class="cls-27" cx="230.19" cy="150.52" r="35.64"/><circle class="cls-2" cx="230.19" cy="150.52" r="35.37"/><path class="cls-28" d="M230.19,193.15a42.63,42.63,0,1,1,42.64-42.63A42.68,42.68,0,0,1,230.19,193.15Zm0-84.26a41.63,41.63,0,1,0,41.64,41.63A41.68,41.68,0,0,0,230.19,108.89Z"/><circle class="cls-4" cx="57.29" cy="52.99" r="35.37"/><circle class="cls-5" cx="57.29" cy="52.99" r="35.14"/><circle class="cls-6" cx="57.29" cy="52.99" r="34.91"/><circle class="cls-7" cx="57.29" cy="52.99" r="34.68"/><circle class="cls-8" cx="57.29" cy="52.99" r="34.46"/><circle class="cls-9" cx="57.29" cy="52.99" r="34.23"/><circle class="cls-10" cx="57.29" cy="52.99" r="34"/><circle class="cls-11" cx="57.29" cy="52.99" r="33.78"/><circle class="cls-12" cx="57.29" cy="52.99" r="33.55"/><circle class="cls-13" cx="57.29" cy="52.99" r="33.32"/><circle class="cls-14" cx="57.29" cy="52.99" r="33.09"/><circle class="cls-15" cx="57.29" cy="52.99" r="32.87"/><circle class="cls-16" cx="57.29" cy="52.99" r="32.64"/><circle class="cls-17" cx="57.29" cy="52.99" r="32.41"/><circle class="cls-18" cx="57.29" cy="52.99" r="32.19"/><circle class="cls-19" cx="57.29" cy="52.99" r="31.96"/><circle class="cls-20" cx="57.29" cy="52.99" r="31.73"/><circle class="cls-21" cx="57.29" cy="52.99" r="31.5"/><circle class="cls-22" cx="57.29" cy="52.99" r="31.28"/><circle class="cls-23" cx="57.29" cy="52.99" r="31.05"/><circle class="cls-24" cx="57.29" cy="52.99" r="30.82"/><circle class="cls-25" cx="57.29" cy="52.99" r="30.59"/><circle class="cls-26" cx="57.29" cy="52.99" r="30.37"/><circle class="cls-27" cx="57.29" cy="52.99" r="30.14"/><circle class="cls-27" cx="57.29" cy="52.99" r="29.91"/><circle class="cls-2" cx="57.29" cy="52.99" r="29.69"/><path class="cls-28" d="M57.29,89.12A36.13,36.13,0,1,1,93.42,53,36.17,36.17,0,0,1,57.29,89.12Zm0-71.26A35.13,35.13,0,1,0,92.42,53,35.17,35.17,0,0,0,57.29,17.86Z"/><g id="Mand"><path class="cls-2" d="M212,163.77c-8.89,3.44-15.27,6-16.38,5.87h70c-1.11.12-7.86-2.5-16.76-5.94-5.84-2.26-5.28-8.29-5.28-16.51l3.82-6.09a16.58,16.58,0,0,0,1.1-6.37,4.65,4.65,0,0,0,5.15-3.45c.4-2.14-1.36-4-3.65-4.4,1.18-1.88,2.81-5.6,2.48-11.5-.48-8.88-3.88-10-8.12-12.15-4.5-2.28-4.93-6.15-14.08-6.43-13.09-.4-20.22,7.11-20.47,20.21-.14,7.44,2.85,11,2.85,11,.12,1.92.09,4.27.16,6.51l-1.11-8c-2.53.47-4.57,2.93-4.17,5.08s2.77,3.5,5.29,3c.09,2.59.34,5,1.15,6.45l4,6.09C217.94,157.08,217.81,161.51,212,163.77Zm38-36.82-1.45,7.54c.08-2,.12-4,.35-6.11A8.32,8.32,0,0,0,249.93,127Z"/><path class="cls-28" d="M265.49,170.14c-1.39,0-6.82-2.08-16.88-6-5.68-2.2-5.64-7.85-5.6-15v-2h1v2c0,7-.07,12.12,5,14.07,8,3.09,15.56,6,16.52,5.9l.11,1Z"/><path class="cls-28" d="M195.61,170.14h-.12l.11-1c.85.1,6.65-2.15,13.34-4.74l2.82-1.09c5.37-2.08,5.64-5.77,5.64-16.12h1c0,9.73,0,14.62-6.28,17.05l-2.81,1.09C201,168.54,196.84,170.14,195.61,170.14Z"/><path class="cls-28" d="M230.59,155.65c-6,0-11.62-4.68-17.11-14.31-1.18-2.07-1.23-5.9-1.28-9.6,0-1.27,0-2.47-.1-3.55-.55-.74-3-4.36-2.85-11.19s2.1-12.23,5.87-15.81c3.61-3.44,8.69-5.09,15.11-4.89s8.74,2.18,11,4.09a16,16,0,0,0,3.34,2.39l.78.39c3.83,1.92,7.15,3.57,7.61,12.18.46,8.39-2.9,12.47-3.64,13.26-.17,1.58-.23,3.18-.28,4.73-.11,3.06-.21,5.94-1.21,8C243.54,149.89,236.63,155.65,230.59,155.65Zm-1.38-58.36c-5.67,0-10.17,1.55-13.4,4.62-3.57,3.39-5.44,8.47-5.56,15.1-.14,7.14,2.7,10.64,2.73,10.67l.1.13V128c.07,1.14.09,2.41.11,3.75,0,3.41.09,7.28,1.15,9.13,5.29,9.29,10.61,13.8,16.24,13.8s12.22-5.53,16.29-13.78c.91-1.84,1-4.62,1.11-7.56.06-1.63.12-3.31.31-5l0-.18.13-.12s3.94-3.9,3.47-12.61h0c-.44-8-3.22-9.42-7.07-11.34l-.79-.39a17.79,17.79,0,0,1-3.53-2.53c-2.18-1.88-4.24-3.66-10.33-3.85Z"/><path class="cls-28" d="M211.8,135.24a5.52,5.52,0,0,1-2.69-.69A4.15,4.15,0,0,1,207,131.7c-.45-2.39,1.77-5.14,4.57-5.66l.18,1c-2.25.42-4.11,2.65-3.77,4.5a3.19,3.19,0,0,0,1.61,2.16,4.64,4.64,0,0,0,3.11.48l.19,1A6,6,0,0,1,211.8,135.24Z"/><path class="cls-28" d="M249.15,135.29a5.29,5.29,0,0,1-.8-.07l.18-1a4,4,0,0,0,2.93-.68,3.74,3.74,0,0,0,1.66-2.37c.37-1.94-1.38-3.47-3.27-3.82l.18-1c2.72.5,4.51,2.69,4.08,5a4.81,4.81,0,0,1-2.09,3A5.21,5.21,0,0,1,249.15,135.29Z"/><path class="cls-28" d="M212.81,128.63l-.86-.51a15,15,0,0,0,1.58-5.24c.45-2.58.87-5,3.07-6.38,3.12-1.94,5.08-1.93,9.39-1.9h2.61c10.31-.07,11.41-3.93,11.88-5.58.16-.56.33-1.13.91-1.13,1.4,0,7.9,5.34,7.9,20.49h-1c0-13.87-5.47-18.86-6.74-19.44,0,.11-.07.24-.11.36-.53,1.86-1.78,6.22-12.83,6.3H226c-4.23,0-6,0-8.85,1.75-1.82,1.13-2.19,3.25-2.61,5.7A15.76,15.76,0,0,1,212.81,128.63Z"/><ellipse class="cls-28" cx="220.99" cy="129.49" rx="1.62" ry="2.36"/><ellipse class="cls-28" cx="239.36" cy="129.49" rx="1.62" ry="2.36"/><path class="cls-28" d="M224.4,125.94a7.17,7.17,0,0,0-5.92-.12l-.36-.93a8.19,8.19,0,0,1,6.71.15Z"/><path class="cls-28" d="M242.3,125.94a7.15,7.15,0,0,0-5.91-.12l-.37-.93a8.22,8.22,0,0,1,6.72.15Z"/><path class="cls-28" d="M230.23,138.3a3.28,3.28,0,0,1-2.53-1.23l.78-.62a2.25,2.25,0,0,0,1.86.84,1.93,1.93,0,0,0,1.55-.85l.83.55a2.89,2.89,0,0,1-2.34,1.3Z"/><path class="cls-28" d="M230.34,146.8a4.9,4.9,0,0,1-3.24-1.11l.68-.74a4.07,4.07,0,0,0,4.83.12l.68.74A4.4,4.4,0,0,1,230.34,146.8Z"/><path class="cls-28" d="M230.47,143.41c-3.41,0-4.56-.29-6.17-1.56l.62-.78c1.32,1,2.21,1.34,5.55,1.34,2.82,0,3.89-.24,5-1.12l.63.78C234.65,143.22,233.2,143.41,230.47,143.41Z"/></g><polygon class="cls-29" points="137.47 206.78 140.67 204.87 138.62 201.43 135.4 203.36 137.47 206.78"/><path class="cls-30" d="M139.65,203.15a1.87,1.87,0,1,1-2.63-.76A1.93,1.93,0,0,1,139.65,203.15Z"/><polygon class="cls-29" points="146.51 201.15 148.09 200 149.62 198.76 147.03 195.71 145.66 196.83 144.21 197.88 146.51 201.15"/><path class="cls-30" d="M148.32,197.24a1.9,1.9,0,0,1-.23,2.76,2,2,0,1,1,.23-2.76Z"/><path class="cls-29" d="M154.54,193.4a16.44,16.44,0,0,0,1.08-1.75l.51-.89.41-.94-3.66-1.63-.33.78-.42.73a14.08,14.08,0,0,1-.88,1.43Z"/><path class="cls-30" d="M154.71,189a1.85,1.85,0,0,1,.91,2.64,1.94,1.94,0,0,1-1.22.94,2,2,0,0,1-1.51-.32,2.18,2.18,0,0,1-.86-1.22,1.66,1.66,0,0,1,.1-1.35A2.06,2.06,0,0,1,154.71,189Z"/><polygon class="cls-29" points="158.42 182.69 158.53 180.68 158.58 179.7 158.65 178.89 154.66 178.63 154.53 180.56 154.44 182.28 158.42 182.69"/><path class="cls-30" d="M156.65,178.76a2.21,2.21,0,0,1,1.38.59,1.55,1.55,0,0,1,.38.55,2,2,0,0,1,.12.78,1.88,1.88,0,0,1-2.1,1.81,2,2,0,0,1-1.9-1.93,1.45,1.45,0,0,1,.2-.67,2.21,2.21,0,0,1,.47-.63A1.9,1.9,0,0,1,156.65,178.76Z"/><path class="cls-29" d="M160.24,173.21c.28-.49.53-1,.82-1.46l1-1.37-3.16-2.46-1.19,1.65c-.37.58-.69,1.2-1,1.8Z"/><path class="cls-30" d="M160.48,169.15a1.87,1.87,0,1,1-2,3.14,1.88,1.88,0,1,1,2-3.14Z"/><path class="cls-29" d="M166.53,166c.44-.39.93-.74,1.41-1.09s.95-.71,1.46-1l-2.24-3.32c-.54.35-1.06.75-1.59,1.13s-1,.76-1.55,1.19Z"/><path class="cls-30" d="M168.28,162.17a1.87,1.87,0,1,1-3,2.22,1.88,1.88,0,1,1,3-2.22Z"/><polygon class="cls-29" points="175.04 160.42 178.31 158.66 176.43 155.13 173.11 156.91 175.04 160.42"/><path class="cls-30" d="M177.37,156.89a1.88,1.88,0,1,1-2.6-.88A1.95,1.95,0,0,1,177.37,156.89Z"/><polygon class="cls-29" points="95.3 80.6 98.86 82.48 100.75 78.95 97.13 77.04 95.3 80.6"/><path class="cls-30" d="M99.81,80.71A2,2,0,1,1,99,78,2,2,0,0,1,99.81,80.71Z"/><path class="cls-29" d="M105.37,86c1.21.64,2.43,1.26,3.66,1.87l1.77-3.59c-1.19-.59-2.39-1.2-3.57-1.82Z"/><path class="cls-30" d="M109.91,86a2,2,0,1,1-.9-2.69A2,2,0,0,1,109.91,86Z"/><path class="cls-29" d="M115.89,90.9c1.29.51,2.61,1,3.94,1.42l1.23-3.8c-1.24-.41-2.47-.85-3.7-1.34Z"/><path class="cls-30" d="M120.44,90.42A2,2,0,1,1,116.63,89a2,2,0,0,1,3.81,1.38Z"/><path class="cls-29" d="M127.29,94.12a40.06,40.06,0,0,0,4.24.43l.19-4a35.06,35.06,0,0,1-3.82-.39Z"/><path class="cls-30" d="M131.63,92.55a2,2,0,1,1-4-.41,2,2,0,0,1,4,.41Z"/><path class="cls-29" d="M139.28,94.1c.71-.1,1.41-.24,2.11-.41s1.39-.31,2.07-.52l-1.08-3.85c-.62.19-1.24.34-1.86.47s-1.25.27-1.88.36Z"/><path class="cls-30" d="M142.92,91.24a2,2,0,1,1-4,.89,2,2,0,0,1,4-.89Z"/><path class="cls-29" d="M150.65,90.39c.65-.3,1.27-.63,1.88-1l1.8-1-2-3.49-1.77,1c-.56.32-1.13.63-1.72.9Z"/><path class="cls-30" d="M153.35,86.68a2,2,0,0,1,.19,1.5,2.09,2.09,0,0,1-1,1.23,2,2,0,0,1-2.76-.82,2.07,2.07,0,0,1,.84-2.69,2,2,0,0,1,1.5-.16A1.93,1.93,0,0,1,153.35,86.68Z"/><path class="cls-29" d="M160.66,85.89a29.16,29.16,0,0,1,3.71-.68l-.44-4a32.52,32.52,0,0,0-4.26.77Z"/><path class="cls-30" d="M164.15,83.23a2,2,0,0,1-4,.72,2,2,0,1,1,4-.72Z"/><path class="cls-29" d="M171.28,85.24c.64.06,1.28.14,1.92.25s1.27.21,1.9.35l.81-3.92c-.69-.15-1.39-.27-2.09-.38s-1.4-.21-2.11-.28Z"/><path class="cls-30" d="M175.51,83.88a2,2,0,0,1-4-.63,2,2,0,1,1,4,.63Z"/><path class="cls-29" d="M181.91,87.76c1.24.45,2.46.93,3.68,1.43l1.55-3.68c-1.28-.54-2.58-1-3.89-1.52Z"/><path class="cls-30" d="M186.37,87.35a2,2,0,0,1-3.79-1.47,2,2,0,1,1,3.79,1.47Z"/><path class="cls-29" d="M192.1,92.27c1.18.61,2.35,1.24,3.52,1.89l1.95-3.49q-1.8-1-3.63-2Z"/><path class="cls-30" d="M196.59,92.42A2,2,0,0,1,193,90.49a2,2,0,0,1,3.57,1.93Z"/><polygon class="cls-29" points="201.92 97.84 205.41 99.93 207.46 96.49 203.98 94.41 201.92 97.84"/><path class="cls-30" d="M206.43,98.21a2,2,0,1,1-.71-2.76A2,2,0,0,1,206.43,98.21Z"/><g id="Mand-2" data-name="Mand"><path class="cls-2" d="M29.88,65.29c-5.56,2.15-2.59,1.34-3.28,1.26L63.42,69c-.69.07-4.92-1.56-10.48-3.71-3.65-1.42-3.3-5.19-3.3-10.33L52,51.11a10.27,10.27,0,0,0,.69-4A2.89,2.89,0,0,0,55.93,45a2.53,2.53,0,0,0-2.28-2.75A12.08,12.08,0,0,0,55.2,35c-.3-5.55-2.43-6.25-5.08-7.6-2.81-1.43-3.08-3.84-8.8-4C33.13,23.15,28.67,27.85,28.51,36c-.08,4.65,1.79,6.88,1.79,6.88.07,1.2.05,2.67.1,4.07l-.7-5c-1.58.29-2.86,1.83-2.61,3.17a2.71,2.71,0,0,0,3.31,1.9,9.84,9.84,0,0,0,.72,4l2.49,3.81C33.61,61.1,33.54,63.88,29.88,65.29Zm23.74-23L52.72,47c.05-1.22.07-2.52.22-3.82A5.22,5.22,0,0,0,53.62,42.26Z"/><path class="cls-28" d="M63.36,69.46c-.86,0-3.7-1.07-10.63-3.75-3.67-1.42-3.65-5-3.62-9.55V54.92h1v1.24c0,4.49,0,7.45,3,8.62,4.68,1.81,9.51,3.68,10.24,3.68h0l.1,1Z"/><path class="cls-28" d="M26.78,67l-.36-.93,3.26-1.27c3.24-1.25,3.41-3.52,3.41-9.9h1c0,6,0,9.27-4.05,10.84Z"/><path class="cls-28" d="M41.53,60.4c-3.84,0-7.4-3-10.87-9-.76-1.33-.79-3.76-.82-6.1,0-.75,0-1.49-.06-2.15A11.67,11.67,0,0,1,28,36c.08-4.38,1.34-7.75,3.73-10s5.52-3.23,9.59-3.11,5.56,1.39,7,2.6a10,10,0,0,0,2,1.48l.49.24c2.45,1.22,4.57,2.28,4.87,7.77h0c.28,5.16-1.73,7.77-2.29,8.38-.1,1-.13,1.94-.17,2.89a13.2,13.2,0,0,1-.77,5.07C49.72,56.84,45.44,60.4,41.53,60.4Zm-.87-36.51c-3.49,0-6.27.95-8.25,2.84C30.22,28.82,29.07,32,29,36.05c-.08,4.38,1.65,6.53,1.67,6.55l.1.12v.17c0,.71.06,1.52.07,2.35,0,2.11.06,4.5.69,5.62,3.28,5.75,6.55,8.54,10,8.54s7.5-3.42,10-8.52a12.56,12.56,0,0,0,.67-4.66c0-1,.08-2.07.2-3.12l0-.18.13-.13s2.4-2.39,2.11-7.74h0c-.27-4.92-2-5.76-4.32-6.94l-.49-.24a10.93,10.93,0,0,1-2.25-1.61C46.29,25.11,45,24,41.28,23.9Z"/><path class="cls-28" d="M29.78,47.63a3.11,3.11,0,0,1-3.18-2.36c-.3-1.62,1.13-3.41,3-3.76l.18,1c-1.31.24-2.41,1.53-2.21,2.59a2.23,2.23,0,0,0,2.74,1.5l.18,1A3.51,3.51,0,0,1,29.78,47.63Z"/><path class="cls-28" d="M53.14,47.66a2.47,2.47,0,0,1-.54,0l.18-1a2.42,2.42,0,0,0,2.66-1.76c.2-1.1-.81-2-1.9-2.17l.18-1a3,3,0,0,1,2.7,3.34A3.39,3.39,0,0,1,53.14,47.66Z"/><path class="cls-28" d="M30.57,43.41l-.86-.51a9.17,9.17,0,0,0,1-3.22c.28-1.58.56-3.22,2-4.12,2-1.24,3.32-1.23,6-1.22h1.63c6.31,0,7-2.36,7.26-3.35.1-.35.24-.84.75-.84.9,0,5.12,3.38,5.12,13h-1c0-8-2.93-11.2-3.92-11.87-.34,1.21-1.16,4-8.2,4.06H38.65c-2.62,0-3.69,0-5.44,1.07-1.07.66-1.29,2-1.55,3.44A10.29,10.29,0,0,1,30.57,43.41Z"/><ellipse class="cls-28" cx="35.52" cy="43.85" rx="1.01" ry="1.47"/><ellipse class="cls-28" cx="47.01" cy="43.85" rx="1.01" ry="1.47"/><path class="cls-28" d="M37.57,41.8A4.26,4.26,0,0,0,34,41.73l-.36-.94A5.34,5.34,0,0,1,38,40.9Z"/><path class="cls-28" d="M48.77,41.8a4.26,4.26,0,0,0-3.55-.07l-.36-.94a5.31,5.31,0,0,1,4.35.11Z"/><path class="cls-28" d="M41.3,49.54a2.25,2.25,0,0,1-1.73-.83l.78-.63a1.21,1.21,0,0,0,1,.46,1,1,0,0,0,.82-.45l.84.55a2,2,0,0,1-1.61.9Z"/><path class="cls-28" d="M41.37,54.87a3.24,3.24,0,0,1-2.15-.75l.67-.74a2.39,2.39,0,0,0,2.77.08l.68.73A2.88,2.88,0,0,1,41.37,54.87Z"/><path class="cls-28" d="M41.45,52.74c-2.16,0-2.94-.2-4-1l.62-.79c.8.63,1.3.8,3.35.8,1.71,0,2.36-.14,3-.66l.62.78C44.15,52.61,43.17,52.74,41.45,52.74Z"/></g><g id="Dame-2" data-name="Dame"><path class="cls-2" d="M58.3,69.08c-6.19,2.4-10.77,4.15-11.54,4.07L86.9,70.32c-.78.09,3,1.16-3.21-1.24-4.07-1.57-3.43-5.57-4.07-11.84h0a39.74,39.74,0,0,0,4.58-9v0a2.86,2.86,0,0,0,3.41-2.17A2.81,2.81,0,0,0,85.8,43a31.82,31.82,0,0,0,1.1-7.36,16.24,16.24,0,0,0-8.56-14.59h0a7.55,7.55,0,0,0-7.51-8.29,7.3,7.3,0,0,0-7.42,8.29h0a16.17,16.17,0,0,0-8.65,14.52A33.11,33.11,0,0,0,55.86,43a2.82,2.82,0,0,0-2,3.13,2.86,2.86,0,0,0,3.41,2.17l-.21-1.1a39.6,39.6,0,0,0,5,10.17h0C62.06,64.2,62.36,67.51,58.3,69.08Z"/><path class="cls-28" d="M86.72,70.79l-3.21-1.24c-3.61-1.4-3.83-4.59-4.13-9-.06-1-.14-2.09-.26-3.25l1-.1c.12,1.17.19,2.26.26,3.28.3,4.35.48,7,3.49,8.15l3.21,1.23Z"/><path class="cls-28" d="M46.8,73.65h-.09l.1-1c.76.07,6.61-2.22,11.31-4,3.47-1.35,3.46-4.05,3.44-10V57.32h1v1.33c0,6,0,9.31-4.08,10.9C51.19,72.37,47.78,73.65,46.8,73.65Z"/><path class="cls-28" d="M70.92,63.55h0c-10.74,0-16.64-21-16.64-28a16.56,16.56,0,1,1,33.12.07c0,4.44-1.84,11.39-4.48,16.89C79.51,59.64,75.25,63.55,70.92,63.55Zm0-43.79A15.56,15.56,0,0,0,55.28,35.58c0,7.78,6.23,27,15.64,27h0c5.3,0,9.23-6.54,11.1-10.44,2.87-6,4.38-12.82,4.38-16.46A15.52,15.52,0,0,0,70.92,19.76Z"/><path class="cls-28" d="M56.7,48.8a3.48,3.48,0,0,1-1.88-.54A3.13,3.13,0,0,1,54,43.71a3.59,3.59,0,0,1,2.22-1.37l.18,1a2.56,2.56,0,0,0-1.59,1,2.12,2.12,0,0,0,.58,3.1,2.46,2.46,0,0,0,1.84.34l.18,1A3.82,3.82,0,0,1,56.7,48.8Z"/><path class="cls-28" d="M84.77,48.8a3.88,3.88,0,0,1-.67-.06l.19-1a2.26,2.26,0,1,0,.82-4.43l.18-1a3.36,3.36,0,0,1,2.8,3.83A3.32,3.32,0,0,1,84.77,48.8Z"/><path class="cls-28" d="M58.09,43.38l-.86-.51a16.24,16.24,0,0,0,1.29-3c.59-1.72,1.14-3.34,2.81-4.37,2.54-1.58,3.85-1.88,8.26-1.91,7,0,7.73-2.6,8-3.69.1-.38.24-.9.77-.9.78,0,5.94,2.53,5.94,13.61h-1c0-8.94-3.62-12-4.73-12.53a.19.19,0,0,1,0,.07c-.35,1.31-1.16,4.38-9,4.44-4.22,0-5.38.29-7.74,1.76-1.36.84-1.84,2.23-2.4,3.85A16.94,16.94,0,0,1,58.09,43.38Z"/><ellipse class="cls-28" cx="64.47" cy="44.66" rx="1.12" ry="1.64"/><ellipse class="cls-28" cx="77.25" cy="44.66" rx="1.12" ry="1.64"/><path class="cls-28" d="M66.37,42a3.14,3.14,0,0,0-3.71-.1L62,41.15a4.13,4.13,0,0,1,5.06.1Z"/><path class="cls-28" d="M70.9,50.94A2.42,2.42,0,0,1,69,50l.77-.63a1.43,1.43,0,0,0,1.17.54,1.17,1.17,0,0,0,1-.53l.84.55a2.2,2.2,0,0,1-1.75,1Z"/><path class="cls-28" d="M79.11,41.92a3.14,3.14,0,0,0-3.72-.1l-.67-.74a4.16,4.16,0,0,1,5.07.1Z"/><path class="cls-28" d="M71,56.85A3.53,3.53,0,0,1,68.62,56l.67-.74a2.71,2.71,0,0,0,3.16.09l.68.74A3.24,3.24,0,0,1,71,56.85Z"/><path class="cls-28" d="M71.07,54.5c-2.39,0-3.25-.22-4.39-1.12l.62-.78c.9.7,1.47.9,3.77.9,1.91,0,2.64-.16,3.37-.75l.63.78C74,54.35,73,54.5,71.07,54.5Z"/><path class="cls-28" d="M78.85,21.12l-1-.12a6.66,6.66,0,0,0-1.67-5.27,7.26,7.26,0,0,0-5.35-2.46,7.07,7.07,0,0,0-5.3,2.31A6.76,6.76,0,0,0,63.91,21l-1,.1a7.88,7.88,0,0,1,1.87-6.2,8.11,8.11,0,0,1,6-2.64,8.3,8.3,0,0,1,6.1,2.8A7.62,7.62,0,0,1,78.85,21.12Z"/></g></g></g></g></g></svg>