<svg xmlns="http://www.w3.org/2000/svg" viewBox="0 0 231.19 239.8"><defs><style>.cls-1{fill:#f0f8fa;}.cls-2{fill:#fff;}.cls-3{fill:#999898;}.cls-4{fill:#ebebeb;stroke:#999898;stroke-miterlimit:10;}.cls-5{fill:#ececec;}.cls-6{fill:#ededed;}.cls-7{fill:#eeedee;}.cls-8{fill:#efeeee;}.cls-9{fill:#efefef;}.cls-10{fill:#f0f0f0;}.cls-11{fill:#f1f1f1;}.cls-12{fill:#f2f1f2;}.cls-13{fill:#f2f2f2;}.cls-14{fill:#f3f3f3;}.cls-15{fill:#f4f4f4;}.cls-16{fill:#f5f4f5;}.cls-17{fill:#f5f5f5;}.cls-18{fill:#4daf50;}.cls-19{fill:#4eb051;}.cls-20{fill:#4fb051;}.cls-21{fill:#51b052;}.cls-22{fill:#52b153;}.cls-23{fill:#53b153;}.cls-24{fill:#55b154;}.cls-25{fill:#56b255;}.cls-26{fill:#57b255;}.cls-27{fill:#58b256;}.cls-28{fill:#5ab357;}.cls-29{fill:#5bb358;}.cls-30{fill:#5cb358;}.cls-31{fill:#5db459;}.cls-32{fill:#5eb45a;}.cls-33{fill:#5fb45b;}.cls-34{fill:#61b55b;}.cls-35{fill:#62b55c;}.cls-36{fill:#63b55d;}.cls-37{fill:#64b65e;}.cls-38{fill:#65b65f;}.cls-39{fill:#66b65f;}.cls-40{fill:#67b760;}.cls-41{fill:#69b761;}.cls-42{fill:#6ab762;}.cls-43{fill:#6bb863;}.cls-44{fill:#6cb863;}.cls-45{fill:#6db864;}.cls-46{fill:#6eb965;}.cls-47{fill:#6fb966;}.cls-48{fill:#70b967;}.cls-49{fill:#71ba67;}.cls-50{fill:#72ba68;}.cls-51{fill:#73bb69;}.cls-52{fill:#74bb6a;}.cls-53{fill:#75bb6b;}.cls-54{fill:#76bc6b;}.cls-55{fill:#77bc6c;}.cls-56{fill:#79bc6d;}.cls-57{fill:#7abd6e;}.cls-58{fill:#7bbd6f;}.cls-59{fill:#7cbe70;}.cls-60{fill:#7dbe70;}.cls-61{fill:#7ebe71;}.cls-62{fill:#7fbf72;}.cls-63{fill:#80bf73;}.cls-64{fill:#81c074;}.cls-65{fill:#82c075;}.cls-66{fill:#83c075;}.cls-67{fill:#84c176;}.cls-68{fill:#85c177;}.cls-69{fill:#86c278;}.cls-70{fill:#87c279;}.cls-71{fill:#87c27a;}.cls-72{fill:#88c37a;}.cls-73{fill:#89c37b;}.cls-74{fill:#8ac37c;}.cls-75{fill:#8bc47d;}.cls-76{fill:#8cc47e;}.cls-77{fill:#8dc57f;}.cls-78{fill:#8ec580;}.cls-79{fill:#8fc580;}.cls-80{fill:#90c681;}.cls-81{fill:#90c682;}.cls-82{fill:#91c683;}.cls-83{fill:#92c784;}.cls-84{fill:#93c785;}.cls-85{fill:#94c886;}.cls-86{fill:#95c886;}.cls-87{fill:#96c887;}.cls-88{fill:#96c988;}.cls-89{fill:#97c989;}.cls-90{fill:#98c98a;}.cls-91{fill:#99ca8b;}.cls-92{fill:#9aca8c;}.cls-93{fill:#9bcb8d;}.cls-94{fill:#9ccb8e;}.cls-95{fill:#9dcc8f;}.cls-96{fill:#9ecc90;}.cls-97{fill:#9fcc91;}.cls-98{fill:#9fcd92;}.cls-99{fill:#a0cd92;}.cls-100{fill:#a1ce93;}.cls-101{fill:#a2ce94;}.cls-102{fill:#a3ce95;}.cls-103{fill:#a3cf96;}.cls-104{fill:#a4cf97;}.cls-105{fill:#a5cf98;}.cls-106{fill:#a6d098;}.cls-107{fill:#a7d099;}.cls-108{fill:#a7d19a;}.cls-109{fill:#a8d19b;}.cls-110{fill:#a9d19c;}.cls-111{fill:#aad29d;}.cls-112{fill:#abd29d;}.cls-113{fill:#abd39e;}.cls-114{fill:#acd39f;}.cls-115{fill:#add3a0;}.cls-116{fill:#aed4a1;}.cls-117{fill:#afd4a2;}.cls-118{fill:#b0d5a3;}.cls-119{fill:#b1d5a4;}.cls-120{fill:#b2d6a5;}.cls-121{fill:#b2d6a6;}.cls-122{fill:#b3d6a6;}.cls-123{fill:#b4d7a7;}.cls-124{fill:#b5d7a8;}</style></defs><g id="Layer_2" data-name="Layer 2"><g id="Layer_1-2" data-name="Layer 1"><g id="Calendar"><g id="Background"><rect class="cls-1" x="-13.37" y="39.76" width="185.67" height="54.11" rx="27.06" transform="translate(-24.23 61.62) rotate(-37.19)"/><rect class="cls-1" x="41.57" y="68.9" width="199.94" height="54.11" rx="27.06" transform="translate(-29.22 105.07) rotate(-37.19)"/><rect class="cls-1" x="46.49" y="148.51" width="177.14" height="54.11" rx="27.06" transform="translate(-78.65 117.34) rotate(-37.19)"/></g><g id="Calendar-2" data-name="Calendar"><rect class="cls-2" x="38.77" y="40.59" width="172.2" height="145.75" rx="5.82"/><path class="cls-3" d="M205.16,186.84H44.59a6.33,6.33,0,0,1-6.32-6.32V46.41a6.33,6.33,0,0,1,6.32-6.32H205.16a6.33,6.33,0,0,1,6.32,6.32V180.52A6.33,6.33,0,0,1,205.16,186.84ZM44.59,41.09a5.32,5.32,0,0,0-5.32,5.32V180.52a5.33,5.33,0,0,0,5.32,5.32H205.16a5.33,5.33,0,0,0,5.32-5.32V46.41a5.32,5.32,0,0,0-5.32-5.32Z"/><path class="cls-3" d="M163.77,115h-15a2.6,2.6,0,0,1-2.59-2.59V96.06a2.59,2.59,0,0,1,2.59-2.58h15a2.59,2.59,0,0,1,2.59,2.58v16.38A2.59,2.59,0,0,1,163.77,115Zm-15-20.55a1.59,1.59,0,0,0-1.59,1.58v16.38a1.59,1.59,0,0,0,1.59,1.59h15a1.59,1.59,0,0,0,1.59-1.59V96.06a1.59,1.59,0,0,0-1.59-1.58Z"/><path class="cls-3" d="M195.43,115h-15a2.59,2.59,0,0,1-2.59-2.59V96.06a2.59,2.59,0,0,1,2.59-2.58h15A2.59,2.59,0,0,1,198,96.06v16.38A2.59,2.59,0,0,1,195.43,115Zm-15-20.55a1.59,1.59,0,0,0-1.59,1.58v16.38a1.59,1.59,0,0,0,1.59,1.59h15a1.59,1.59,0,0,0,1.58-1.59V96.06a1.58,1.58,0,0,0-1.58-1.58Z"/><path class="cls-3" d="M163.77,145h-15a2.6,2.6,0,0,1-2.59-2.59V126.06a2.59,2.59,0,0,1,2.59-2.58h15a2.59,2.59,0,0,1,2.59,2.58v16.38A2.59,2.59,0,0,1,163.77,145Zm-15-20.55a1.59,1.59,0,0,0-1.59,1.58v16.38a1.59,1.59,0,0,0,1.59,1.59h15a1.59,1.59,0,0,0,1.59-1.59V126.06a1.59,1.59,0,0,0-1.59-1.58Z"/><path class="cls-3" d="M195.43,145h-15a2.59,2.59,0,0,1-2.59-2.59V126.06a2.59,2.59,0,0,1,2.59-2.58h15a2.59,2.59,0,0,1,2.58,2.58v16.38A2.59,2.59,0,0,1,195.43,145Zm-15-20.55a1.59,1.59,0,0,0-1.59,1.58v16.38a1.59,1.59,0,0,0,1.59,1.59h15a1.59,1.59,0,0,0,1.58-1.59V126.06a1.58,1.58,0,0,0-1.58-1.58Z"/><path class="cls-3" d="M163.54,175h-15a2.59,2.59,0,0,1-2.59-2.59V156.06a2.59,2.59,0,0,1,2.59-2.58h15a2.59,2.59,0,0,1,2.58,2.58v16.38A2.59,2.59,0,0,1,163.54,175Zm-15-20.55a1.59,1.59,0,0,0-1.59,1.58v16.38a1.59,1.59,0,0,0,1.59,1.59h15a1.59,1.59,0,0,0,1.58-1.59V156.06a1.58,1.58,0,0,0-1.58-1.58Z"/><path class="cls-3" d="M195.19,175h-15a2.59,2.59,0,0,1-2.59-2.59V156.06a2.59,2.59,0,0,1,2.59-2.58h15a2.59,2.59,0,0,1,2.59,2.58v16.38A2.59,2.59,0,0,1,195.19,175Zm-15-20.55a1.59,1.59,0,0,0-1.59,1.58v16.38a1.59,1.59,0,0,0,1.59,1.59h15a1.59,1.59,0,0,0,1.59-1.59V156.06a1.59,1.59,0,0,0-1.59-1.58Z"/><path class="cls-3" d="M100.94,145H86a2.59,2.59,0,0,1-2.59-2.59V126.06A2.59,2.59,0,0,1,86,123.48h15a2.59,2.59,0,0,1,2.58,2.58v16.38A2.59,2.59,0,0,1,100.94,145ZM86,124.48a1.59,1.59,0,0,0-1.59,1.58v16.38A1.59,1.59,0,0,0,86,144h15a1.59,1.59,0,0,0,1.58-1.59V126.06a1.58,1.58,0,0,0-1.58-1.58Z"/><path class="cls-3" d="M132.59,145h-15a2.59,2.59,0,0,1-2.59-2.59V126.06a2.59,2.59,0,0,1,2.59-2.58h15a2.59,2.59,0,0,1,2.59,2.58v16.38A2.59,2.59,0,0,1,132.59,145Zm-15-20.55a1.59,1.59,0,0,0-1.59,1.58v16.38a1.59,1.59,0,0,0,1.59,1.59h15a1.59,1.59,0,0,0,1.59-1.59V126.06a1.59,1.59,0,0,0-1.59-1.58Z"/><path class="cls-3" d="M100.7,175h-15a2.59,2.59,0,0,1-2.59-2.59V156.06a2.59,2.59,0,0,1,2.59-2.58h15a2.59,2.59,0,0,1,2.59,2.58v16.38A2.59,2.59,0,0,1,100.7,175Zm-15-20.55a1.59,1.59,0,0,0-1.59,1.58v16.38A1.59,1.59,0,0,0,85.74,174h15a1.59,1.59,0,0,0,1.59-1.59V156.06a1.59,1.59,0,0,0-1.59-1.58Z"/><path class="cls-3" d="M70.47,145h-15a2.59,2.59,0,0,1-2.58-2.59V126.06a2.59,2.59,0,0,1,2.58-2.58h15a2.59,2.59,0,0,1,2.58,2.58v16.38A2.59,2.59,0,0,1,70.47,145Zm-15-20.55a1.58,1.58,0,0,0-1.58,1.58v16.38A1.59,1.59,0,0,0,55.5,144h15a1.59,1.59,0,0,0,1.58-1.59V126.06a1.58,1.58,0,0,0-1.58-1.58Z"/><path class="cls-3" d="M70.23,175h-15a2.59,2.59,0,0,1-2.59-2.59V156.06a2.59,2.59,0,0,1,2.59-2.58h15a2.59,2.59,0,0,1,2.59,2.58v16.38A2.59,2.59,0,0,1,70.23,175Zm-15-20.55a1.59,1.59,0,0,0-1.59,1.58v16.38A1.59,1.59,0,0,0,55.27,174h15a1.59,1.59,0,0,0,1.59-1.59V156.06a1.59,1.59,0,0,0-1.59-1.58Z"/><path class="cls-3" d="M132.36,175h-15a2.59,2.59,0,0,1-2.58-2.59V156.06a2.59,2.59,0,0,1,2.58-2.58h15a2.59,2.59,0,0,1,2.58,2.58v16.38A2.59,2.59,0,0,1,132.36,175Zm-15-20.55a1.58,1.58,0,0,0-1.58,1.58v16.38a1.59,1.59,0,0,0,1.58,1.59h15a1.59,1.59,0,0,0,1.58-1.59V156.06a1.58,1.58,0,0,0-1.58-1.58Z"/><path class="cls-4" d="M211,80.87H38.77V46.12a5.83,5.83,0,0,1,5.82-5.82H205.16A5.83,5.83,0,0,1,211,46.12Z"/><path class="cls-5" d="M210.66,80.57H39.09V46.33a5.75,5.75,0,0,1,5.79-5.72h160a5.75,5.75,0,0,1,5.79,5.72Z"/><path class="cls-6" d="M210.34,80.26H39.41V46.55a5.71,5.71,0,0,1,5.77-5.64H204.57a5.71,5.71,0,0,1,5.77,5.64Z"/><path class="cls-7" d="M210,80H39.73V46.77a5.66,5.66,0,0,1,5.75-5.56H204.27A5.66,5.66,0,0,1,210,46.77Z"/><path class="cls-8" d="M209.7,79.66H40V47a5.6,5.6,0,0,1,5.73-5.46H204A5.59,5.59,0,0,1,209.7,47Z"/><path class="cls-9" d="M209.39,79.35h-169V47.2a5.56,5.56,0,0,1,5.71-5.38H203.68a5.56,5.56,0,0,1,5.71,5.38Z"/><path class="cls-10" d="M209.07,79.05H40.68V47.42a5.51,5.51,0,0,1,5.69-5.3h157a5.51,5.51,0,0,1,5.69,5.3Z"/><path class="cls-11" d="M208.75,78.74H41V47.63a5.45,5.45,0,0,1,5.66-5.2H203.09a5.45,5.45,0,0,1,5.66,5.2Z"/><path class="cls-12" d="M208.43,78.44H41.32V47.85A5.39,5.39,0,0,1,47,42.73H202.79a5.39,5.39,0,0,1,5.64,5.12Z"/><path class="cls-13" d="M208.11,78.14H41.64V48.07a5.35,5.35,0,0,1,5.62-5H202.49a5.35,5.35,0,0,1,5.62,5Z"/><path class="cls-14" d="M207.8,77.83H42V48.28c0-2.73,2.51-4.94,5.6-4.94H202.2c3.09,0,5.6,2.21,5.6,4.94Z"/><path class="cls-15" d="M207.48,77.53H42.27v-29c0-2.68,2.5-4.86,5.58-4.86H201.9c3.08,0,5.58,2.18,5.58,4.86Z"/><path class="cls-16" d="M207.16,77.23H42.59V48.72c0-2.64,2.49-4.78,5.56-4.78H201.6c3.07,0,5.56,2.14,5.56,4.78Z"/><path class="cls-17" d="M206.84,76.92H42.91v-28c0-2.58,2.48-4.68,5.53-4.68H201.31c3.05,0,5.53,2.1,5.53,4.68Z"/><path class="cls-3" d="M73.7,50.21H72.58a.46.46,0,0,1-.44-.45l.12-14.32c0-.48-.21-4.78-6-4.78a4.61,4.61,0,0,0-3.4,1.25,6.6,6.6,0,0,0-1.6,3.85.44.44,0,0,1-.44.4H59.73a.44.44,0,0,1-.44-.47,8.51,8.51,0,0,1,2.18-5.19,6.54,6.54,0,0,1,4.82-1.84,8.11,8.11,0,0,1,6,2.14,7.1,7.1,0,0,1,2,4.65l-.12,14.32A.43.43,0,0,1,73.7,50.21Z"/><path class="cls-3" d="M96.85,50.71H95.73a.44.44,0,0,1-.44-.44l.12-14.32c0-.48-.21-4.78-6-4.78A4.61,4.61,0,0,0,86,32.41a6.6,6.6,0,0,0-1.6,3.85.44.44,0,0,1-.44.39H82.88a.44.44,0,0,1-.44-.48A8.51,8.51,0,0,1,84.62,31a6.54,6.54,0,0,1,4.82-1.84,8.14,8.14,0,0,1,6,2.13,7.13,7.13,0,0,1,2,4.66l-.12,14.32A.44.44,0,0,1,96.85,50.71Z"/><path class="cls-3" d="M120.22,50.46h-1.11a.44.44,0,0,1-.44-.44l.12-14.32c0-.48-.22-4.78-6-4.78a4.63,4.63,0,0,0-3.41,1.25A6.57,6.57,0,0,0,107.82,36a.44.44,0,0,1-.44.4h-1.12a.44.44,0,0,1-.44-.48A8.45,8.45,0,0,1,108,30.75a6.54,6.54,0,0,1,4.82-1.84,8.16,8.16,0,0,1,6,2.13,7.13,7.13,0,0,1,2,4.66L120.67,50A.44.44,0,0,1,120.22,50.46Z"/><path class="cls-3" d="M143.37,51h-1.11a.44.44,0,0,1-.44-.44l.12-14.32c0-.48-.22-4.78-6-4.78a4.63,4.63,0,0,0-3.41,1.25A6.52,6.52,0,0,0,131,36.5a.44.44,0,0,1-.44.4h-1.12a.44.44,0,0,1-.44-.48,8.45,8.45,0,0,1,2.18-5.18A6.53,6.53,0,0,1,136,29.41a8.16,8.16,0,0,1,6,2.13,7.13,7.13,0,0,1,2,4.66l-.12,14.32A.44.44,0,0,1,143.37,51Z"/><path class="cls-3" d="M166.47,50.21h-1.12a.46.46,0,0,1-.44-.45L165,35.44c0-.48-.21-4.78-6-4.78a4.61,4.61,0,0,0-3.4,1.25,6.6,6.6,0,0,0-1.6,3.85.44.44,0,0,1-.44.4H152.5a.44.44,0,0,1-.44-.47,8.51,8.51,0,0,1,2.18-5.19,6.54,6.54,0,0,1,4.82-1.84,8.11,8.11,0,0,1,6,2.14,7.1,7.1,0,0,1,2,4.65l-.12,14.32A.43.43,0,0,1,166.47,50.21Z"/><path class="cls-3" d="M189.61,50.71H188.5a.44.44,0,0,1-.44-.44l.12-14.32c0-.48-.21-4.78-6-4.78a4.59,4.59,0,0,0-3.4,1.25,6.53,6.53,0,0,0-1.6,3.85.44.44,0,0,1-.44.39h-1.12a.44.44,0,0,1-.44-.48A8.51,8.51,0,0,1,177.39,31a6.54,6.54,0,0,1,4.82-1.84,8.14,8.14,0,0,1,6,2.13,7.13,7.13,0,0,1,2,4.66l-.12,14.32A.44.44,0,0,1,189.61,50.71Z"/><polygon class="cls-18" points="231.19 128.37 219.74 119.9 179.67 174.09 154.3 148.73 144.23 158.81 181.2 195.99 181.29 195.87 181.35 195.93 231.19 128.37"/><polygon class="cls-19" points="231.17 128.38 219.74 119.92 179.67 174.12 154.3 148.75 144.25 158.81 181.2 195.97 181.29 195.85 181.35 195.91 231.17 128.38"/><polygon class="cls-20" points="231.15 128.38 219.74 119.95 179.67 174.14 154.31 148.77 144.27 158.81 181.19 195.95 181.28 195.83 181.35 195.89 231.15 128.38"/><polygon class="cls-21" points="231.13 128.39 219.74 119.97 179.67 174.16 154.31 148.79 144.29 158.8 181.19 195.93 181.28 195.81 181.34 195.87 231.13 128.39"/><polygon class="cls-22" points="231.11 128.4 219.74 119.99 179.67 174.18 154.31 148.81 144.31 158.8 181.19 195.91 181.28 195.79 181.34 195.85 231.11 128.4"/><polygon class="cls-23" points="231.09 128.4 219.74 120.01 179.67 174.2 154.31 148.82 144.33 158.8 181.19 195.89 181.28 195.77 181.34 195.83 231.09 128.4"/><polygon class="cls-24" points="231.07 128.41 219.74 120.04 179.67 174.23 154.31 148.84 144.35 158.8 181.19 195.87 181.28 195.75 181.34 195.81 231.07 128.41"/><polygon class="cls-25" points="231.05 128.41 219.75 120.06 179.67 174.25 154.31 148.86 144.37 158.8 181.19 195.85 181.27 195.73 181.34 195.79 231.05 128.41"/><polygon class="cls-26" points="231.03 128.42 219.75 120.08 179.68 174.27 154.31 148.88 144.39 158.8 181.18 195.82 181.27 195.71 181.33 195.77 231.03 128.42"/><polygon class="cls-27" points="231.01 128.43 219.75 120.1 179.68 174.29 154.31 148.9 144.41 158.8 181.18 195.81 181.27 195.69 181.33 195.75 231.01 128.43"/><polygon class="cls-28" points="230.99 128.43 219.75 120.13 179.68 174.31 154.32 148.91 144.44 158.79 181.18 195.78 181.27 195.66 181.33 195.73 230.99 128.43"/><polygon class="cls-29" points="230.97 128.44 219.75 120.15 179.68 174.34 154.32 148.93 144.46 158.79 181.18 195.76 181.26 195.65 181.33 195.71 230.97 128.44"/><polygon class="cls-30" points="230.94 128.44 219.75 120.17 179.68 174.36 154.32 148.95 144.48 158.79 181.18 195.74 181.26 195.62 181.32 195.69 230.94 128.44"/><polygon class="cls-31" points="230.92 128.45 219.75 120.19 179.68 174.38 154.32 148.97 144.5 158.79 181.17 195.72 181.26 195.6 181.32 195.67 230.92 128.45"/><polygon class="cls-32" points="230.9 128.46 219.76 120.22 179.68 174.4 154.32 148.99 144.52 158.79 181.17 195.7 181.26 195.58 181.32 195.65 230.9 128.46"/><polygon class="cls-33" points="230.88 128.46 219.76 120.24 179.68 174.42 154.32 149.01 144.54 158.79 181.17 195.68 181.26 195.56 181.32 195.63 230.88 128.46"/><polygon class="cls-34" points="230.86 128.47 219.76 120.26 179.68 174.44 154.32 149.03 144.56 158.79 181.17 195.66 181.25 195.54 181.32 195.6 230.86 128.47"/><polygon class="cls-35" points="230.84 128.47 219.76 120.28 179.68 174.47 154.33 149.04 144.58 158.79 181.17 195.64 181.25 195.52 181.31 195.58 230.84 128.47"/><polygon class="cls-36" points="230.82 128.48 219.76 120.31 179.69 174.49 154.33 149.06 144.6 158.79 181.16 195.62 181.25 195.5 181.31 195.56 230.82 128.48"/><polygon class="cls-37" points="230.8 128.49 219.76 120.33 179.69 174.51 154.33 149.08 144.62 158.78 181.16 195.6 181.25 195.48 181.31 195.54 230.8 128.49"/><polygon class="cls-38" points="230.78 128.49 219.76 120.35 179.69 174.53 154.33 149.1 144.65 158.78 181.16 195.58 181.25 195.46 181.31 195.52 230.78 128.49"/><polygon class="cls-39" points="230.76 128.5 219.77 120.37 179.69 174.55 154.33 149.12 144.67 158.78 181.16 195.56 181.25 195.44 181.31 195.5 230.76 128.5"/><polygon class="cls-40" points="230.74 128.5 219.77 120.39 179.69 174.57 154.33 149.13 144.69 158.78 181.16 195.54 181.24 195.42 181.3 195.48 230.74 128.5"/><polygon class="cls-41" points="230.72 128.51 219.77 120.42 179.69 174.6 154.34 149.15 144.71 158.78 181.16 195.52 181.24 195.4 181.3 195.46 230.72 128.51"/><polygon class="cls-42" points="230.69 128.52 219.77 120.44 179.69 174.62 154.34 149.17 144.73 158.78 181.15 195.5 181.24 195.38 181.3 195.44 230.69 128.52"/><polygon class="cls-43" points="230.67 128.52 219.77 120.46 179.69 174.64 154.34 149.19 144.75 158.78 181.15 195.47 181.24 195.36 181.3 195.42 230.67 128.52"/><polygon class="cls-44" points="230.65 128.53 219.77 120.48 179.69 174.66 154.34 149.21 144.77 158.78 181.15 195.45 181.24 195.34 181.29 195.4 230.65 128.53"/><polygon class="cls-45" points="230.63 128.53 219.78 120.51 179.69 174.68 154.34 149.23 144.79 158.78 181.15 195.43 181.23 195.32 181.29 195.38 230.63 128.53"/><polygon class="cls-46" points="230.61 128.54 219.78 120.53 179.7 174.71 154.34 149.25 144.81 158.77 181.15 195.41 181.23 195.3 181.29 195.36 230.61 128.54"/><polygon class="cls-47" points="230.59 128.55 219.78 120.55 179.7 174.73 154.34 149.26 144.83 158.77 181.14 195.39 181.23 195.28 181.29 195.34 230.59 128.55"/><polygon class="cls-48" points="230.57 128.55 219.78 120.57 179.7 174.75 154.34 149.28 144.85 158.77 181.14 195.37 181.23 195.26 181.29 195.32 230.57 128.55"/><polygon class="cls-49" points="230.55 128.56 219.78 120.6 179.7 174.77 154.35 149.3 144.88 158.77 181.14 195.35 181.22 195.24 181.28 195.3 230.55 128.56"/><polygon class="cls-50" points="230.53 128.56 219.78 120.62 179.7 174.79 154.35 149.32 144.9 158.77 181.14 195.33 181.22 195.22 181.28 195.28 230.53 128.56"/><polygon class="cls-51" points="230.51 128.57 219.78 120.64 179.7 174.81 154.35 149.34 144.92 158.77 181.14 195.31 181.22 195.2 181.28 195.25 230.51 128.57"/><polygon class="cls-52" points="230.49 128.58 219.79 120.66 179.7 174.84 154.35 149.35 144.94 158.77 181.13 195.29 181.22 195.18 181.28 195.23 230.49 128.58"/><polygon class="cls-53" points="230.47 128.58 219.79 120.69 179.7 174.86 154.35 149.37 144.96 158.76 181.13 195.27 181.22 195.16 181.28 195.21 230.47 128.58"/><polygon class="cls-54" points="230.45 128.59 219.79 120.71 179.71 174.88 154.35 149.39 144.98 158.76 181.13 195.25 181.21 195.13 181.27 195.19 230.45 128.59"/><polygon class="cls-55" points="230.43 128.59 219.79 120.73 179.71 174.9 154.35 149.41 145 158.76 181.13 195.23 181.21 195.11 181.27 195.17 230.43 128.59"/><polygon class="cls-56" points="230.41 128.6 219.79 120.75 179.71 174.92 154.36 149.43 145.02 158.76 181.13 195.21 181.21 195.09 181.27 195.15 230.41 128.6"/><polygon class="cls-57" points="230.38 128.61 219.79 120.78 179.71 174.95 154.36 149.45 145.04 158.76 181.13 195.19 181.21 195.07 181.27 195.13 230.38 128.61"/><polygon class="cls-58" points="230.36 128.61 219.79 120.8 179.71 174.97 154.36 149.47 145.06 158.76 181.12 195.16 181.21 195.05 181.26 195.11 230.36 128.61"/><polygon class="cls-59" points="230.34 128.62 219.8 120.82 179.71 174.99 154.36 149.48 145.09 158.76 181.12 195.14 181.2 195.03 181.26 195.09 230.34 128.62"/><polygon class="cls-60" points="230.32 128.63 219.8 120.84 179.71 175.01 154.36 149.5 145.11 158.76 181.12 195.12 181.2 195.01 181.26 195.07 230.32 128.63"/><polygon class="cls-61" points="230.3 128.63 219.8 120.87 179.71 175.03 154.36 149.52 145.13 158.76 181.12 195.1 181.2 194.99 181.26 195.05 230.3 128.63"/><polygon class="cls-62" points="230.28 128.64 219.8 120.89 179.71 175.06 154.36 149.54 145.15 158.75 181.12 195.08 181.2 194.97 181.26 195.03 230.28 128.64"/><polygon class="cls-63" points="230.26 128.64 219.8 120.91 179.72 175.08 154.37 149.56 145.17 158.75 181.11 195.06 181.2 194.95 181.25 195.01 230.26 128.64"/><polygon class="cls-64" points="230.24 128.65 219.8 120.93 179.72 175.1 154.37 149.57 145.19 158.75 181.11 195.04 181.19 194.93 181.25 194.99 230.24 128.65"/><polygon class="cls-65" points="230.22 128.66 219.81 120.96 179.72 175.12 154.37 149.59 145.21 158.75 181.11 195.02 181.19 194.91 181.25 194.97 230.22 128.66"/><polygon class="cls-66" points="230.2 128.66 219.81 120.98 179.72 175.14 154.37 149.61 145.23 158.75 181.11 195 181.19 194.89 181.25 194.95 230.2 128.66"/><polygon class="cls-67" points="230.18 128.67 219.81 121 179.72 175.16 154.37 149.63 145.25 158.75 181.11 194.98 181.19 194.87 181.25 194.93 230.18 128.67"/><polygon class="cls-68" points="230.16 128.67 219.81 121.02 179.72 175.19 154.37 149.65 145.27 158.75 181.1 194.96 181.19 194.85 181.24 194.91 230.16 128.67"/><polygon class="cls-69" points="230.13 128.68 219.81 121.05 179.72 175.21 154.37 149.67 145.29 158.75 181.1 194.94 181.18 194.83 181.24 194.88 230.13 128.68"/><polygon class="cls-70" points="230.12 128.69 219.81 121.07 179.72 175.23 154.38 149.69 145.32 158.75 181.1 194.92 181.18 194.81 181.24 194.87 230.12 128.69"/><polygon class="cls-71" points="230.09 128.69 219.81 121.09 179.72 175.25 154.38 149.7 145.34 158.74 181.1 194.9 181.18 194.79 181.24 194.84 230.09 128.69"/><polygon class="cls-72" points="230.07 128.7 219.81 121.11 179.72 175.27 154.38 149.72 145.36 158.74 181.1 194.88 181.18 194.77 181.23 194.82 230.07 128.7"/><polygon class="cls-73" points="230.05 128.7 219.82 121.14 179.73 175.29 154.38 149.74 145.38 158.74 181.09 194.85 181.18 194.75 181.23 194.8 230.05 128.7"/><polygon class="cls-74" points="230.03 128.71 219.82 121.16 179.73 175.32 154.38 149.76 145.4 158.74 181.09 194.83 181.17 194.73 181.23 194.78 230.03 128.71"/><polygon class="cls-75" points="230.01 128.72 219.82 121.18 179.73 175.34 154.38 149.78 145.42 158.74 181.09 194.81 181.17 194.71 181.23 194.76 230.01 128.72"/><polygon class="cls-76" points="229.99 128.72 219.82 121.2 179.73 175.36 154.38 149.79 145.44 158.74 181.09 194.79 181.17 194.69 181.22 194.74 229.99 128.72"/><polygon class="cls-77" points="229.97 128.73 219.82 121.22 179.73 175.38 154.38 149.81 145.46 158.74 181.09 194.77 181.17 194.66 181.22 194.72 229.97 128.73"/><polygon class="cls-78" points="229.95 128.73 219.82 121.25 179.73 175.4 154.39 149.83 145.48 158.74 181.09 194.75 181.16 194.65 181.22 194.7 229.95 128.73"/><polygon class="cls-79" points="229.93 128.74 219.83 121.27 179.73 175.43 154.39 149.85 145.5 158.73 181.08 194.73 181.16 194.62 181.22 194.68 229.93 128.74"/><polygon class="cls-80" points="229.91 128.75 219.83 121.29 179.73 175.45 154.39 149.87 145.53 158.73 181.08 194.71 181.16 194.6 181.22 194.66 229.91 128.75"/><polygon class="cls-81" points="229.89 128.75 219.83 121.31 179.74 175.47 154.39 149.89 145.55 158.73 181.08 194.69 181.16 194.58 181.21 194.64 229.89 128.75"/><polygon class="cls-82" points="229.87 128.76 219.83 121.34 179.74 175.49 154.39 149.91 145.57 158.73 181.08 194.67 181.16 194.56 181.21 194.62 229.87 128.76"/><polygon class="cls-83" points="229.84 128.76 219.83 121.36 179.74 175.51 154.39 149.92 145.59 158.73 181.08 194.65 181.15 194.54 181.21 194.6 229.84 128.76"/><polygon class="cls-84" points="229.82 128.77 219.83 121.38 179.74 175.53 154.4 149.94 145.61 158.73 181.07 194.63 181.15 194.52 181.21 194.58 229.82 128.77"/><polygon class="cls-85" points="229.8 128.78 219.84 121.4 179.74 175.56 154.4 149.96 145.63 158.73 181.07 194.61 181.15 194.5 181.21 194.56 229.8 128.78"/><polygon class="cls-86" points="229.78 128.78 219.84 121.43 179.74 175.58 154.4 149.98 145.65 158.72 181.07 194.59 181.15 194.48 181.2 194.54 229.78 128.78"/><polygon class="cls-87" points="229.76 128.79 219.84 121.45 179.74 175.6 154.4 150 145.67 158.72 181.07 194.57 181.15 194.46 181.2 194.52 229.76 128.79"/><polygon class="cls-88" points="229.74 128.79 219.84 121.47 179.74 175.62 154.4 150.01 145.69 158.72 181.07 194.54 181.14 194.44 181.2 194.5 229.74 128.79"/><polygon class="cls-89" points="229.72 128.8 219.84 121.49 179.74 175.64 154.4 150.03 145.71 158.72 181.06 194.53 181.14 194.42 181.2 194.47 229.72 128.8"/><polygon class="cls-90" points="229.7 128.81 219.84 121.52 179.74 175.67 154.4 150.05 145.74 158.72 181.06 194.5 181.14 194.4 181.19 194.45 229.7 128.81"/><polygon class="cls-91" points="229.68 128.81 219.84 121.54 179.75 175.69 154.41 150.07 145.76 158.72 181.06 194.48 181.14 194.38 181.19 194.43 229.68 128.81"/><polygon class="cls-92" points="229.66 128.82 219.84 121.56 179.75 175.71 154.41 150.09 145.78 158.72 181.06 194.46 181.14 194.36 181.19 194.41 229.66 128.82"/><polygon class="cls-93" points="229.64 128.82 219.85 121.58 179.75 175.73 154.41 150.11 145.8 158.72 181.06 194.44 181.13 194.34 181.19 194.39 229.64 128.82"/><polygon class="cls-93" points="229.62 128.83 219.85 121.61 179.75 175.75 154.41 150.13 145.82 158.72 181.06 194.42 181.13 194.32 181.19 194.37 229.62 128.83"/><polygon class="cls-94" points="229.6 128.84 219.85 121.63 179.75 175.78 154.41 150.14 145.84 158.72 181.05 194.4 181.13 194.3 181.18 194.35 229.6 128.84"/><polygon class="cls-95" points="229.58 128.84 219.85 121.65 179.75 175.8 154.41 150.16 145.86 158.71 181.05 194.38 181.13 194.28 181.18 194.33 229.58 128.84"/><polygon class="cls-96" points="229.56 128.85 219.85 121.67 179.75 175.82 154.41 150.18 145.88 158.71 181.05 194.36 181.13 194.26 181.18 194.31 229.56 128.85"/><polygon class="cls-97" points="229.53 128.85 219.85 121.7 179.75 175.84 154.41 150.2 145.9 158.71 181.05 194.34 181.12 194.24 181.18 194.29 229.53 128.85"/><polygon class="cls-98" points="229.51 128.86 219.85 121.72 179.75 175.86 154.42 150.22 145.92 158.71 181.05 194.32 181.12 194.22 181.18 194.27 229.51 128.86"/><polygon class="cls-99" points="229.49 128.87 219.86 121.74 179.75 175.88 154.42 150.24 145.94 158.71 181.04 194.3 181.12 194.19 181.17 194.25 229.49 128.87"/><polygon class="cls-100" points="229.47 128.87 219.86 121.76 179.76 175.91 154.42 150.25 145.97 158.71 181.04 194.28 181.12 194.18 181.17 194.23 229.47 128.87"/><polygon class="cls-101" points="229.45 128.88 219.86 121.79 179.76 175.93 154.42 150.27 145.99 158.71 181.04 194.26 181.12 194.16 181.17 194.21 229.45 128.88"/><polygon class="cls-102" points="229.43 128.88 219.86 121.81 179.76 175.95 154.42 150.29 146.01 158.71 181.04 194.24 181.11 194.13 181.17 194.19 229.43 128.88"/><polygon class="cls-103" points="229.41 128.89 219.86 121.83 179.76 175.97 154.42 150.31 146.03 158.7 181.04 194.22 181.11 194.11 181.16 194.17 229.41 128.89"/><polygon class="cls-104" points="229.39 128.9 219.86 121.85 179.76 175.99 154.43 150.33 146.05 158.7 181.03 194.19 181.11 194.09 181.16 194.15 229.39 128.9"/><polygon class="cls-105" points="229.37 128.9 219.87 121.88 179.76 176.01 154.43 150.34 146.07 158.7 181.03 194.17 181.11 194.07 181.16 194.13 229.37 128.9"/><polygon class="cls-106" points="229.35 128.91 219.87 121.9 179.76 176.04 154.43 150.36 146.09 158.7 181.03 194.15 181.1 194.05 181.16 194.1 229.35 128.91"/><polygon class="cls-107" points="229.33 128.91 219.87 121.92 179.76 176.06 154.43 150.38 146.11 158.7 181.03 194.13 181.1 194.03 181.16 194.08 229.33 128.91"/><polygon class="cls-108" points="229.31 128.92 219.87 121.94 179.76 176.08 154.43 150.4 146.13 158.7 181.03 194.11 181.1 194.01 181.15 194.06 229.31 128.92"/><polygon class="cls-109" points="229.28 128.93 219.87 121.97 179.77 176.1 154.43 150.42 146.15 158.7 181.03 194.09 181.1 193.99 181.15 194.04 229.28 128.93"/><polygon class="cls-110" points="229.26 128.93 219.87 121.99 179.77 176.12 154.43 150.44 146.18 158.69 181.02 194.07 181.1 193.97 181.15 194.02 229.26 128.93"/><polygon class="cls-111" points="229.24 128.94 219.88 122.01 179.77 176.15 154.44 150.46 146.2 158.69 181.02 194.05 181.09 193.95 181.15 194 229.24 128.94"/><polygon class="cls-112" points="229.22 128.94 219.88 122.03 179.77 176.17 154.44 150.47 146.22 158.69 181.02 194.03 181.09 193.93 181.14 193.98 229.22 128.94"/><polygon class="cls-113" points="229.2 128.95 219.88 122.06 179.77 176.19 154.44 150.49 146.24 158.69 181.02 194.01 181.09 193.91 181.14 193.96 229.2 128.95"/><polygon class="cls-114" points="229.18 128.96 219.88 122.08 179.77 176.21 154.44 150.51 146.26 158.69 181.02 193.99 181.09 193.89 181.14 193.94 229.18 128.96"/><polygon class="cls-115" points="229.16 128.96 219.88 122.1 179.77 176.23 154.44 150.53 146.28 158.69 181.01 193.97 181.09 193.87 181.14 193.92 229.16 128.96"/><polygon class="cls-116" points="229.14 128.97 219.88 122.12 179.77 176.25 154.44 150.55 146.3 158.69 181.01 193.95 181.09 193.85 181.14 193.9 229.14 128.97"/><polygon class="cls-116" points="229.12 128.97 219.88 122.14 179.78 176.28 154.44 150.56 146.32 158.69 181.01 193.93 181.08 193.83 181.13 193.88 229.12 128.97"/><polygon class="cls-117" points="229.1 128.98 219.88 122.17 179.78 176.3 154.44 150.58 146.34 158.69 181.01 193.91 181.08 193.81 181.13 193.86 229.1 128.98"/><polygon class="cls-118" points="229.08 128.99 219.89 122.19 179.78 176.32 154.45 150.6 146.36 158.68 181.01 193.88 181.08 193.79 181.13 193.84 229.08 128.99"/><polygon class="cls-119" points="229.06 128.99 219.89 122.21 179.78 176.34 154.45 150.62 146.38 158.68 181 193.86 181.08 193.77 181.13 193.82 229.06 128.99"/><polygon class="cls-120" points="229.04 129 219.89 122.23 179.78 176.36 154.45 150.64 146.41 158.68 181 193.84 181.07 193.75 181.13 193.8 229.04 129"/><polygon class="cls-121" points="229.02 129 219.89 122.26 179.78 176.39 154.45 150.66 146.43 158.68 181 193.82 181.07 193.73 181.12 193.78 229.02 129"/><polygon class="cls-122" points="229 129.01 219.89 122.28 179.78 176.41 154.45 150.68 146.45 158.68 181 193.8 181.07 193.71 181.12 193.76 229 129.01"/><polygon class="cls-123" points="228.97 129.01 219.89 122.3 179.78 176.43 154.45 150.69 146.47 158.68 181 193.78 181.07 193.69 181.12 193.74 228.97 129.01"/><polygon class="cls-124" points="228.95 129.02 219.9 122.32 179.78 176.45 154.46 150.71 146.49 158.68 181 193.76 181.07 193.66 181.12 193.72 228.95 129.02"/></g></g></g></g></svg>