<svg xmlns="http://www.w3.org/2000/svg" viewBox="0 0 253.58 239.8"><defs><style>.cls-1{fill:#f0f8fa;}.cls-2{fill:#fff;}.cls-3{fill:#999898;}.cls-4{fill:#009fb1;}</style></defs><g id="Layer_2" data-name="Layer 2"><g id="Layer_1-2" data-name="Layer 1"><g id="Error"><g id="Background"><rect class="cls-1" x="-3.59" y="39.76" width="185.67" height="54.11" rx="27.06" transform="translate(-22.24 67.53) rotate(-37.19)"/><rect class="cls-1" x="51.35" y="68.9" width="199.94" height="54.11" rx="27.06" transform="translate(-27.23 110.98) rotate(-37.19)"/><rect class="cls-1" x="56.27" y="148.51" width="177.14" height="54.11" rx="27.06" transform="translate(-76.67 123.25) rotate(-37.19)"/></g><g id="Error-2" data-name="Error"><path class="cls-2" d="M59.12,85.71c-18.69-3-22.36-6.88-24.67-11.4-2.67-5.2-1.89-9.63-1.79-14.88.08-3.91-2.93-10.79-9.08-13.57C14.22,41.63,4,39.62,1.5,40L.07,43.69c2.51-.35,11,.75,20.35,5,6.15,2.77,8.35,7.94,8.27,11.85-.1,5.26-.08,11.4,2.59,16.6,2.31,4.51,8.61,9.09,27.3,12.08"/><path class="cls-2" d="M199.81,104.14c3.84.71,11.68,1.29,18.48,3.7,8.59,3,16.48,8.71,19.46,16,2.3,5.67-1.6,13.27,0,18.1,1.48,4.33,2,7.92,15.59,13.69L252,159.2c-10.2-3.91-14.52-7.27-17.82-14.58-2.91-6.46,1.53-14.34.45-18.35-2.24-8.31-11.29-12.11-18.11-14.73s-13.42-3-17.26-3.73Z"/><path class="cls-2" d="M59.52,85.77H83.73a0,0,0,0,1,0,0v7.08a0,0,0,0,1,0,0H59.52a.83.83,0,0,1-.83-.83V86.6A.83.83,0,0,1,59.52,85.77Z" transform="translate(15.56 -10.44) rotate(9.41)"/><path class="cls-3" d="M83.4,95.42,59,91.38a1.35,1.35,0,0,1-.86-.54,1.33,1.33,0,0,1-.23-1l.89-5.34a1.35,1.35,0,0,1,.54-.87,1.32,1.32,0,0,1,1-.23l24.38,4Zm-23.28-11a.32.32,0,0,0-.19.07.3.3,0,0,0-.13.21L58.91,90a.29.29,0,0,0,.06.24.34.34,0,0,0,.21.14l23.4,3.87,1-6L60.17,84.4Z"/><path class="cls-2" d="M133.6,89.49h23.94a.14.14,0,0,1,.14.14v4.3a.14.14,0,0,1-.14.14H133.6a1,1,0,0,1-1-1V90.45a1,1,0,0,1,1-1Z" transform="translate(16.96 -22.5) rotate(9.41)"/><path class="cls-3" d="M157,96.56h-.11L133.3,92.64a1.48,1.48,0,0,1-1-.59A1.42,1.42,0,0,1,132.1,91l.43-2.62a1.45,1.45,0,0,1,1.68-1.2l23.62,3.91a.65.65,0,0,1,.42.26.63.63,0,0,1,.11.48L157.65,96A.63.63,0,0,1,157,96.56Zm.05-1h0ZM134,88.12a.45.45,0,0,0-.45.39l-.44,2.61a.46.46,0,0,0,.08.34.45.45,0,0,0,.3.19l23.27,3.86.58-3.53-23.26-3.86Zm23.4,3.5Z"/><path class="cls-2" d="M131.74,105.19h23.94a.14.14,0,0,1,.14.14v4.3a.14.14,0,0,1-.14.14H131.74a1,1,0,0,1-1-1v-2.65a1,1,0,0,1,1-1Z" transform="translate(19.5 -21.98) rotate(9.41)"/><path class="cls-3" d="M155.17,112.26h-.11l-23.62-3.91a1.53,1.53,0,0,1-.95-.59,1.43,1.43,0,0,1-.25-1.1l.43-2.61a1.45,1.45,0,0,1,1.68-1.2L156,106.75a.65.65,0,0,1,.42.26.62.62,0,0,1,.11.47l-.71,4.25a.6.6,0,0,1-.25.41A.63.63,0,0,1,155.17,112.26Zm-.36-.7h0Zm-22.7-7.74a.53.53,0,0,0-.27.08.45.45,0,0,0-.18.3l-.44,2.62a.46.46,0,0,0,.08.34.48.48,0,0,0,.31.19l23.26,3.86.58-3.53-23.26-3.86Zm23.4,3.5Z"/><path class="cls-2" d="M175.5,100.67h24.22a0,0,0,0,1,0,0v7.08a0,0,0,0,1,0,0H175.5a.83.83,0,0,1-.83-.83V101.5A.83.83,0,0,1,175.5,100.67Z" transform="matrix(-0.99, -0.16, 0.16, -0.99, 354.82, 237.63)"/><path class="cls-3" d="M198.29,110.13l-.22,0-24.39-4,1.32-8,24.39,4a1.33,1.33,0,0,1,1.09,1.53l-.89,5.35A1.32,1.32,0,0,1,198.29,110.13Zm-23.46-4.89,23.4,3.88a.33.33,0,0,0,.38-.27l.89-5.35a.34.34,0,0,0-.28-.37l-23.39-3.88Z"/><path class="cls-2" d="M73.1,77.61H89.92a2.15,2.15,0,0,1,2.15,2.15v21.66a2.15,2.15,0,0,1-2.15,2.15H73.1a0,0,0,0,1,0,0v-26A0,0,0,0,1,73.1,77.61Z" transform="translate(149.25 193.45) rotate(-170.59)"/><path class="cls-3" d="M90.23,105.52l-17.09-2.83a2.66,2.66,0,0,1-2.18-3l3.55-21.37a2.65,2.65,0,0,1,3-2.18l17.09,2.83ZM77.12,77.05a1.66,1.66,0,0,0-1.63,1.38L72,99.8a1.65,1.65,0,0,0,1.36,1.9l16.1,2.67,4.08-24.63-16.1-2.67Z"/><path class="cls-2" d="M166.34,91h16.82a2.15,2.15,0,0,1,2.15,2.15v21.66a2.15,2.15,0,0,1-2.15,2.15H166.34a0,0,0,0,1,0,0V91a0,0,0,0,1,0,0Z" transform="translate(19.37 -27.35) rotate(9.41)"/><path class="cls-3" d="M181.29,118.54a2.18,2.18,0,0,1-.44,0l-17.08-2.83,4.4-26.6,17.09,2.83a2.66,2.66,0,0,1,2.18,3l-3.54,21.37a2.66,2.66,0,0,1-1.07,1.72A2.62,2.62,0,0,1,181.29,118.54Zm-16.37-3.69L181,117.52a1.62,1.62,0,0,0,1.23-.29,1.64,1.64,0,0,0,.67-1.07l3.54-21.37a1.65,1.65,0,0,0-1.35-1.9L169,90.22Z"/><path class="cls-2" d="M89,77.71h20.14a1.78,1.78,0,0,1,1.78,1.78v27.34a1.78,1.78,0,0,1-1.78,1.78H89a0,0,0,0,1,0,0V77.71a0,0,0,0,1,0,0Z" transform="translate(183.3 201.41) rotate(-170.59)"/><path class="cls-3" d="M108.64,110.77l-20.37-3.38a2.26,2.26,0,0,1-1.87-2.61l4.47-27a2.27,2.27,0,0,1,2.62-1.87l20.36,3.37ZM93.11,76.9a1.32,1.32,0,0,0-.74.23,1.29,1.29,0,0,0-.51.83l-4.47,27a1.24,1.24,0,0,0,.22,1,1.28,1.28,0,0,0,.83.52l19.37,3.21,4.89-29.5L93.32,76.91Z"/><rect class="cls-2" x="110.15" y="77.48" width="5.58" height="36.27" rx="1.1" transform="translate(17.15 -17.18) rotate(9.41)"/><path class="cls-3" d="M111.82,114.3l-.26,0-3.34-.55a1.6,1.6,0,0,1-1.31-1.84l5.57-33.62a1.62,1.62,0,0,1,.64-1,1.58,1.58,0,0,1,1.19-.28l3.35.56A1.59,1.59,0,0,1,119,79.34L113.4,113A1.6,1.6,0,0,1,111.82,114.3Zm2.23-36.37a.6.6,0,0,0-.34.11.64.64,0,0,0-.25.39l-5.57,33.62a.6.6,0,0,0,.49.69l3.34.55a.59.59,0,0,0,.69-.49L118,79.18a.59.59,0,0,0-.49-.69l-3.34-.55Z"/><path class="cls-3" d="M58.5,89.69c-15.86-2.53-24.65-6.45-27.67-12.34-2.63-5.15-2.75-11.14-2.64-16.84.07-3.73-2-8.68-8-11.39C11,45,2.58,43.85.14,44.18l-.14-1c2.28-.31,10.64.52,20.62,5,6.44,2.91,8.65,8.27,8.57,12.32-.11,5.57,0,11.42,2.53,16.36,2.86,5.58,11.42,9.34,26.94,11.82Z"/><path class="cls-3" d="M59,86.2c-19.2-3.07-22.7-7.09-25-11.66S31.9,66.19,32.07,62c0-.85.08-1.72.09-2.61.08-3.8-2.93-10.46-8.78-13.1C14.05,42.1,4,40.13,1.57,40.46l-.14-1c2.81-.39,13.16,1.78,22.36,5.94,6.52,2.94,9.45,10.11,9.37,14,0,.9,0,1.78-.09,2.64-.17,4.19-.33,7.81,1.82,12s5.57,8.13,24.31,11.13Z"/><rect class="cls-2" x="144.38" y="86.03" width="21.78" height="29.87" transform="translate(18.6 -24.03) rotate(9.41)"/><path class="cls-3" d="M164,118.05l-22.48-3.73,5.05-30.45L169,87.6Zm-21.32-4.55,20.49,3.4,4.72-28.48L147.38,85Z"/><rect class="cls-2" x="164.57" y="84.8" width="5.21" height="36.27" rx="1.1" transform="translate(19.08 -25.95) rotate(9.41)"/><path class="cls-3" d="M165.88,121.59l-.26,0-3-.5a1.59,1.59,0,0,1-1.31-1.83l5.57-33.62a1.6,1.6,0,0,1,1.84-1.32l3,.5a1.54,1.54,0,0,1,1,.64,1.58,1.58,0,0,1,.28,1.19l-5.57,33.62A1.61,1.61,0,0,1,165.88,121.59Zm-.1-1a.59.59,0,0,0,.69-.49L172,86.47a.6.6,0,0,0-.1-.45.62.62,0,0,0-.39-.24l-3-.49a.59.59,0,0,0-.68.49l-5.57,33.62a.59.59,0,0,0,.49.69Z"/><path class="cls-3" d="M251.85,159.66c-10.57-4-14.8-7.51-18.09-14.83-1.81-4-.91-8.42-.12-12.3.5-2.49.94-4.63.53-6.13-2.09-7.78-10.29-11.51-17.8-14.4a62.47,62.47,0,0,0-14-3.2c-1.21-.17-2.3-.33-3.22-.5l.18-1c.91.17,2,.32,3.18.49a63.15,63.15,0,0,1,14.17,3.26c7.74,3,16.19,6.84,18.41,15.07.46,1.73,0,4-.52,6.59-.76,3.73-1.62,8,0,11.69,3.17,7,7.26,10.37,17.54,14.31Z"/><path class="cls-3" d="M253.19,156.14c-13.06-5.56-14.26-9.15-15.64-13.32l-.23-.67c-.81-2.36-.37-5.24.1-8.29.51-3.38,1-6.88-.13-9.78-2.66-6.56-9.83-12.46-19.17-15.77a76.05,76.05,0,0,0-14.75-3.12c-1.43-.2-2.66-.37-3.65-.55l.18-1c1,.18,2.19.35,3.61.55a76.86,76.86,0,0,1,15,3.17c9.6,3.4,17,9.51,19.75,16.33,1.28,3.16.73,6.8.2,10.31-.45,2.92-.87,5.69-.14,7.81l.23.69c1.3,3.93,2.43,7.33,15.08,12.71Z"/><rect class="cls-4" x="113.76" y="47.39" width="1" height="21.41" transform="translate(-11.12 84.71) rotate(-38.94)"/><rect class="cls-4" x="143.8" y="66.04" width="22.63" height="1" transform="translate(-11.68 92.39) rotate(-32.03)"/><rect class="cls-4" x="121.93" y="50.33" width="31.83" height="1" transform="translate(59.93 175.39) rotate(-78.22)"/><rect class="cls-4" x="143.13" y="120.79" width="1" height="21.41" transform="translate(-50.74 143.35) rotate(-45.96)"/><rect class="cls-4" x="90.73" y="127.6" width="22.63" height="1" transform="translate(-57.91 92.94) rotate(-39.06)"/><rect class="cls-4" x="105.19" y="141.08" width="31.83" height="1" transform="translate(-30.15 250.36) rotate(-85.18)"/></g></g></g></g></svg>