<svg xmlns="http://www.w3.org/2000/svg" viewBox="0 0 226.68 239.8"><defs><style>.cls-1{fill:#f0f8fa;}.cls-2{fill:#ebebeb;}.cls-3{fill:#ececec;}.cls-4{fill:#ededed;}.cls-5{fill:#eee;}.cls-6{fill:#efeeee;}.cls-7{fill:#efefef;}.cls-8{fill:#f0f0f0;}.cls-9{fill:#f1f1f1;}.cls-10{fill:#f2f2f2;}.cls-11{fill:#f3f2f3;}.cls-12{fill:#f3f3f3;}.cls-13{fill:#f4f4f4;}.cls-14{fill:#f5f5f5;}.cls-15{fill:#f6f6f6;}.cls-16{fill:#f7f6f7;}.cls-17{fill:#f7f7f7;}.cls-18{fill:#f8f8f8;}.cls-19{fill:#f9f9f9;}.cls-20{fill:#fafafa;}.cls-21{fill:#fbfafb;}.cls-22{fill:#fbfbfb;}.cls-23{fill:#fcfcfc;}.cls-24{fill:#fdfdfd;}.cls-25{fill:#fefefe;}.cls-26{fill:#fff;}.cls-27{fill:#999898;}.cls-28{fill:#009fb0;}</style></defs><g id="Layer_2" data-name="Layer 2"><g id="Layer_1-2" data-name="Layer 1"><g id="No_notifications" data-name="No notifications"><g id="Background"><rect class="cls-1" x="-13.37" y="39.76" width="185.67" height="54.11" rx="27.06" transform="translate(-24.23 61.62) rotate(-37.19)"/><rect class="cls-1" x="41.57" y="68.9" width="199.94" height="54.11" rx="27.06" transform="translate(-29.22 105.07) rotate(-37.19)"/><rect class="cls-1" x="46.49" y="148.51" width="177.14" height="54.11" rx="27.06" transform="matrix(0.8, -0.6, 0.6, 0.8, -78.65, 117.34)"/></g><g id="No_nitification" data-name="No nitification"><circle class="cls-2" cx="103.93" cy="123.86" r="70.92"/><circle class="cls-3" cx="103.93" cy="123.86" r="70.47"/><circle class="cls-4" cx="103.93" cy="123.86" r="70.01"/><circle class="cls-5" cx="103.93" cy="123.86" r="69.55"/><circle class="cls-6" cx="103.93" cy="123.86" r="69.1"/><circle class="cls-7" cx="103.93" cy="123.86" r="68.64"/><circle class="cls-8" cx="103.93" cy="123.86" r="68.19"/><circle class="cls-9" cx="103.93" cy="123.86" r="67.73"/><circle class="cls-10" cx="103.93" cy="123.86" r="67.28"/><circle class="cls-11" cx="103.93" cy="123.86" r="66.82"/><circle class="cls-12" cx="103.93" cy="123.86" r="66.37"/><circle class="cls-13" cx="103.93" cy="123.86" r="65.91"/><circle class="cls-14" cx="103.93" cy="123.86" r="65.45"/><circle class="cls-15" cx="103.93" cy="123.86" r="65"/><circle class="cls-16" cx="103.93" cy="123.86" r="64.54"/><circle class="cls-17" cx="103.93" cy="123.86" r="64.09"/><circle class="cls-18" cx="103.93" cy="123.86" r="63.63"/><circle class="cls-19" cx="103.93" cy="123.86" r="63.18"/><circle class="cls-20" cx="103.93" cy="123.86" r="62.72"/><circle class="cls-21" cx="103.93" cy="123.86" r="62.27"/><circle class="cls-22" cx="103.93" cy="123.86" r="61.81"/><circle class="cls-23" cx="103.93" cy="123.86" r="61.35"/><circle class="cls-24" cx="103.93" cy="123.86" r="60.9"/><circle class="cls-25" cx="103.93" cy="123.86" r="60.44"/><circle class="cls-25" cx="103.93" cy="123.86" r="59.99"/><circle class="cls-26" cx="103.93" cy="123.86" r="59.53"/><path class="cls-27" d="M103.93,195.28a71.42,71.42,0,1,1,71.42-71.42A71.5,71.5,0,0,1,103.93,195.28Zm0-141.84a70.42,70.42,0,1,0,70.42,70.42A70.5,70.5,0,0,0,103.93,53.44Z"/><ellipse class="cls-2" cx="182.32" cy="189.61" rx="13.52" ry="13.53"/><ellipse class="cls-3" cx="182.32" cy="189.61" rx="13.4" ry="13.41"/><ellipse class="cls-4" cx="182.32" cy="189.61" rx="13.28" ry="13.29"/><ellipse class="cls-5" cx="182.32" cy="189.61" rx="13.15" ry="13.16"/><ellipse class="cls-6" cx="182.32" cy="189.61" rx="13.03" ry="13.04"/><ellipse class="cls-7" cx="182.32" cy="189.61" rx="12.91" ry="12.91"/><ellipse class="cls-8" cx="182.32" cy="189.61" rx="12.78" ry="12.79"/><ellipse class="cls-9" cx="182.32" cy="189.61" rx="12.66" ry="12.67"/><ellipse class="cls-10" cx="182.32" cy="189.61" rx="12.53" ry="12.54"/><ellipse class="cls-11" cx="182.32" cy="189.61" rx="12.41" ry="12.42"/><ellipse class="cls-12" cx="182.32" cy="189.61" rx="12.29" ry="12.3"/><ellipse class="cls-13" cx="182.32" cy="189.61" rx="12.16" ry="12.17"/><ellipse class="cls-14" cx="182.32" cy="189.61" rx="12.04" ry="12.05"/><ellipse class="cls-15" cx="182.32" cy="189.61" rx="11.91" ry="11.92"/><ellipse class="cls-16" cx="182.32" cy="189.61" rx="11.79" ry="11.8"/><ellipse class="cls-17" cx="182.32" cy="189.61" rx="11.67" ry="11.68"/><ellipse class="cls-18" cx="182.32" cy="189.61" rx="11.54" ry="11.55"/><ellipse class="cls-19" cx="182.32" cy="189.61" rx="11.42" ry="11.43"/><ellipse class="cls-20" cx="182.32" cy="189.61" rx="11.3" ry="11.3"/><ellipse class="cls-21" cx="182.32" cy="189.61" rx="11.17" ry="11.18"/><ellipse class="cls-22" cx="182.32" cy="189.61" rx="11.05" ry="11.06"/><ellipse class="cls-23" cx="182.32" cy="189.61" rx="10.92" ry="10.93"/><ellipse class="cls-24" cx="182.32" cy="189.61" rx="10.8" ry="10.81"/><ellipse class="cls-25" cx="182.32" cy="189.61" rx="10.68" ry="10.68"/><ellipse class="cls-25" cx="182.32" cy="189.61" rx="10.55" ry="10.56"/><ellipse class="cls-26" cx="182.32" cy="189.61" rx="10.43" ry="10.44"/><path class="cls-27" d="M182.36,203.65c-.36,0-.72,0-1.08,0a14,14,0,1,1,15.05-13h0a14,14,0,0,1-14,13Zm-.05-27.08a13,13,0,1,0,13,14h0a13,13,0,0,0-12-14C183,176.58,182.64,176.57,182.31,176.57Z"/><ellipse class="cls-2" cx="37.28" cy="193.45" rx="9.26" ry="8.92"/><ellipse class="cls-3" cx="37.28" cy="193.45" rx="9.14" ry="8.81"/><ellipse class="cls-4" cx="37.28" cy="193.45" rx="9.03" ry="8.7"/><ellipse class="cls-5" cx="37.28" cy="193.45" rx="8.92" ry="8.59"/><ellipse class="cls-6" cx="37.28" cy="193.45" rx="8.8" ry="8.48"/><ellipse class="cls-7" cx="37.28" cy="193.45" rx="8.69" ry="8.37"/><ellipse class="cls-8" cx="37.28" cy="193.45" rx="8.58" ry="8.26"/><ellipse class="cls-9" cx="37.28" cy="193.45" rx="8.46" ry="8.15"/><ellipse class="cls-10" cx="37.28" cy="193.45" rx="8.35" ry="8.04"/><ellipse class="cls-11" cx="37.28" cy="193.45" rx="8.23" ry="7.93"/><ellipse class="cls-12" cx="37.28" cy="193.45" rx="8.12" ry="7.82"/><ellipse class="cls-13" cx="37.28" cy="193.45" rx="8.01" ry="7.71"/><ellipse class="cls-14" cx="37.28" cy="193.45" rx="7.89" ry="7.6"/><ellipse class="cls-15" cx="37.28" cy="193.45" rx="7.78" ry="7.49"/><ellipse class="cls-16" cx="37.28" cy="193.45" rx="7.66" ry="7.38"/><ellipse class="cls-17" cx="37.28" cy="193.45" rx="7.55" ry="7.28"/><ellipse class="cls-18" cx="37.28" cy="193.45" rx="7.44" ry="7.17"/><ellipse class="cls-19" cx="37.28" cy="193.45" rx="7.32" ry="7.06"/><ellipse class="cls-20" cx="37.28" cy="193.45" rx="7.21" ry="6.95"/><ellipse class="cls-21" cx="37.28" cy="193.45" rx="7.09" ry="6.84"/><ellipse class="cls-22" cx="37.28" cy="193.45" rx="6.98" ry="6.73"/><ellipse class="cls-23" cx="37.28" cy="193.45" rx="6.87" ry="6.62"/><ellipse class="cls-24" cx="37.28" cy="193.45" rx="6.75" ry="6.51"/><ellipse class="cls-25" cx="37.28" cy="193.45" rx="6.64" ry="6.4"/><ellipse class="cls-25" cx="37.28" cy="193.45" rx="6.52" ry="6.29"/><ellipse class="cls-26" cx="37.28" cy="193.45" rx="6.41" ry="6.18"/><path class="cls-27" d="M37.26,203.06a9.6,9.6,0,0,1-7.94-15,9.51,9.51,0,0,1,6.14-4h0a9.6,9.6,0,1,1,3.63,18.86A9.46,9.46,0,0,1,37.26,203.06ZM35.65,185a8.6,8.6,0,1,0,10.08,6.82A8.55,8.55,0,0,0,35.65,185Z"/><ellipse class="cls-2" cx="129.05" cy="89.58" rx="8.61" ry="8.62"/><ellipse class="cls-3" cx="129.05" cy="89.58" rx="8.51" ry="8.51"/><ellipse class="cls-4" cx="129.05" cy="89.58" rx="8.41" ry="8.41"/><ellipse class="cls-5" cx="129.05" cy="89.58" rx="8.3" ry="8.31"/><ellipse class="cls-6" cx="129.05" cy="89.58" rx="8.2" ry="8.21"/><ellipse class="cls-7" cx="129.05" cy="89.58" rx="8.1" ry="8.1"/><ellipse class="cls-8" cx="129.05" cy="89.58" rx="8" ry="8"/><ellipse class="cls-9" cx="129.05" cy="89.58" rx="7.89" ry="7.9"/><ellipse class="cls-10" cx="129.05" cy="89.58" rx="7.79" ry="7.8"/><ellipse class="cls-11" cx="129.05" cy="89.58" rx="7.69" ry="7.69"/><ellipse class="cls-12" cx="129.05" cy="89.58" rx="7.59" ry="7.59"/><ellipse class="cls-13" cx="129.05" cy="89.58" rx="7.48" ry="7.49"/><ellipse class="cls-14" cx="129.05" cy="89.58" rx="7.38" ry="7.39"/><ellipse class="cls-15" cx="129.05" cy="89.58" rx="7.28" ry="7.28"/><ellipse class="cls-16" cx="129.05" cy="89.58" rx="7.18" ry="7.18"/><ellipse class="cls-17" cx="129.05" cy="89.58" rx="7.07" ry="7.08"/><ellipse class="cls-18" cx="129.05" cy="89.58" rx="6.97" ry="6.98"/><ellipse class="cls-19" cx="129.05" cy="89.58" rx="6.87" ry="6.87"/><ellipse class="cls-20" cx="129.05" cy="89.58" rx="6.77" ry="6.77"/><ellipse class="cls-21" cx="129.05" cy="89.58" rx="6.66" ry="6.67"/><ellipse class="cls-22" cx="129.05" cy="89.58" rx="6.56" ry="6.56"/><ellipse class="cls-23" cx="129.05" cy="89.58" rx="6.46" ry="6.46"/><ellipse class="cls-24" cx="129.05" cy="89.58" rx="6.36" ry="6.36"/><ellipse class="cls-25" cx="129.05" cy="89.58" rx="6.25" ry="6.26"/><ellipse class="cls-25" cx="129.05" cy="89.58" rx="6.15" ry="6.15"/><ellipse class="cls-26" cx="129.05" cy="89.58" rx="6.05" ry="6.05"/><path class="cls-27" d="M129.07,98.88c-.24,0-.48,0-.71,0a9.17,9.17,0,1,1,.71,0Zm0-17.6A8.32,8.32,0,0,0,120.77,89a8.3,8.3,0,0,0,16.56,1.24,8.3,8.3,0,0,0-7.66-8.9C129.46,81.28,129.25,81.28,129,81.28Z"/><ellipse class="cls-2" cx="65.38" cy="105.33" rx="6.22" ry="6.23"/><ellipse class="cls-3" cx="65.38" cy="105.33" rx="6.12" ry="6.12"/><ellipse class="cls-4" cx="65.38" cy="105.33" rx="6.01" ry="6.02"/><ellipse class="cls-5" cx="65.38" cy="105.33" rx="5.91" ry="5.91"/><ellipse class="cls-6" cx="65.38" cy="105.33" rx="5.8" ry="5.8"/><ellipse class="cls-7" cx="65.38" cy="105.33" rx="5.69" ry="5.7"/><ellipse class="cls-8" cx="65.38" cy="105.33" rx="5.59" ry="5.59"/><ellipse class="cls-9" cx="65.38" cy="105.33" rx="5.48" ry="5.48"/><ellipse class="cls-10" cx="65.38" cy="105.33" rx="5.37" ry="5.38"/><circle class="cls-11" cx="65.38" cy="105.33" r="5.27"/><circle class="cls-12" cx="65.38" cy="105.33" r="5.16"/><circle class="cls-13" cx="65.38" cy="105.33" r="5.05"/><circle class="cls-14" cx="65.38" cy="105.33" r="4.95"/><circle class="cls-15" cx="65.38" cy="105.33" r="4.84"/><circle class="cls-16" cx="65.38" cy="105.33" r="4.73"/><circle class="cls-17" cx="65.38" cy="105.33" r="4.63"/><circle class="cls-18" cx="65.38" cy="105.33" r="4.52"/><circle class="cls-19" cx="65.38" cy="105.33" r="4.41"/><circle class="cls-20" cx="65.38" cy="105.33" r="4.31"/><circle class="cls-21" cx="65.38" cy="105.33" r="4.2"/><circle class="cls-22" cx="65.38" cy="105.33" r="4.1"/><circle class="cls-23" cx="65.38" cy="105.33" r="3.99"/><circle class="cls-24" cx="65.38" cy="105.33" r="3.88"/><circle class="cls-25" cx="65.38" cy="105.33" r="3.78"/><circle class="cls-25" cx="65.38" cy="105.33" r="3.67"/><circle class="cls-26" cx="65.38" cy="105.33" r="3.56"/><path class="cls-27" d="M66.67,112l-.19-1a5.73,5.73,0,1,0-4.64-1.12l-.62.79a6.71,6.71,0,0,1-2.44-4,6.73,6.73,0,1,1,7.89,5.3Z"/><ellipse class="cls-2" cx="89.42" cy="161.63" rx="12.68" ry="12.69"/><ellipse class="cls-3" cx="89.42" cy="161.63" rx="12.45" ry="12.46"/><ellipse class="cls-4" cx="89.42" cy="161.63" rx="12.22" ry="12.23"/><ellipse class="cls-5" cx="89.42" cy="161.63" rx="11.99" ry="12"/><ellipse class="cls-6" cx="89.42" cy="161.63" rx="11.77" ry="11.77"/><ellipse class="cls-7" cx="89.42" cy="161.63" rx="11.54" ry="11.55"/><ellipse class="cls-8" cx="89.42" cy="161.63" rx="11.31" ry="11.32"/><ellipse class="cls-9" cx="89.42" cy="161.63" rx="11.08" ry="11.09"/><ellipse class="cls-10" cx="89.42" cy="161.63" rx="10.85" ry="10.86"/><ellipse class="cls-11" cx="89.42" cy="161.63" rx="10.62" ry="10.63"/><ellipse class="cls-12" cx="89.42" cy="161.63" rx="10.4" ry="10.4"/><ellipse class="cls-13" cx="89.42" cy="161.63" rx="10.17" ry="10.18"/><ellipse class="cls-14" cx="89.42" cy="161.63" rx="9.94" ry="9.95"/><ellipse class="cls-15" cx="89.42" cy="161.63" rx="9.71" ry="9.72"/><ellipse class="cls-16" cx="89.42" cy="161.63" rx="9.48" ry="9.49"/><ellipse class="cls-17" cx="89.42" cy="161.63" rx="9.25" ry="9.26"/><ellipse class="cls-18" cx="89.42" cy="161.63" rx="9.03" ry="9.03"/><ellipse class="cls-19" cx="89.42" cy="161.63" rx="8.8" ry="8.8"/><ellipse class="cls-20" cx="89.42" cy="161.63" rx="8.57" ry="8.58"/><ellipse class="cls-21" cx="89.42" cy="161.63" rx="8.34" ry="8.35"/><ellipse class="cls-22" cx="89.42" cy="161.63" rx="8.11" ry="8.12"/><ellipse class="cls-23" cx="89.42" cy="161.63" rx="7.88" ry="7.89"/><ellipse class="cls-24" cx="89.42" cy="161.63" rx="7.66" ry="7.66"/><ellipse class="cls-25" cx="89.42" cy="161.63" rx="7.43" ry="7.43"/><ellipse class="cls-25" cx="89.42" cy="161.63" rx="7.2" ry="7.2"/><ellipse class="cls-26" cx="89.42" cy="161.63" rx="6.97" ry="6.98"/><path class="cls-27" d="M89.4,175.08a13.39,13.39,0,0,1-4.7-.85l.35-.94a12.44,12.44,0,1,0-6.38-5.37l-.86.51a13.45,13.45,0,1,1,11.59,6.65Z"/><circle class="cls-2" cx="145.88" cy="166.05" r="4.6"/><circle class="cls-3" cx="145.88" cy="166.05" r="4.52"/><circle class="cls-4" cx="145.88" cy="166.05" r="4.44"/><circle class="cls-5" cx="145.88" cy="166.05" r="4.36"/><circle class="cls-6" cx="145.88" cy="166.05" r="4.28"/><circle class="cls-7" cx="145.88" cy="166.05" r="4.19"/><circle class="cls-8" cx="145.88" cy="166.05" r="4.11"/><circle class="cls-9" cx="145.88" cy="166.05" r="4.03"/><circle class="cls-10" cx="145.88" cy="166.05" r="3.95"/><circle class="cls-11" cx="145.88" cy="166.05" r="3.87"/><circle class="cls-12" cx="145.88" cy="166.05" r="3.79"/><circle class="cls-13" cx="145.88" cy="166.05" r="3.7"/><circle class="cls-14" cx="145.88" cy="166.05" r="3.62"/><circle class="cls-15" cx="145.88" cy="166.05" r="3.54"/><circle class="cls-16" cx="145.88" cy="166.05" r="3.46"/><circle class="cls-17" cx="145.88" cy="166.05" r="3.38"/><circle class="cls-18" cx="145.88" cy="166.05" r="3.3"/><circle class="cls-19" cx="145.88" cy="166.05" r="3.21"/><circle class="cls-20" cx="145.88" cy="166.05" r="3.13"/><circle class="cls-21" cx="145.88" cy="166.05" r="3.05"/><circle class="cls-22" cx="145.88" cy="166.05" r="2.97"/><circle class="cls-23" cx="145.88" cy="166.05" r="2.89"/><circle class="cls-24" cx="145.88" cy="166.05" r="2.81"/><circle class="cls-25" cx="145.88" cy="166.05" r="2.72"/><circle class="cls-25" cx="145.88" cy="166.05" r="2.64"/><circle class="cls-26" cx="145.88" cy="166.05" r="2.56"/><path class="cls-27" d="M145.88,171.15a5.11,5.11,0,0,1-5.1-5.1h1a4.1,4.1,0,1,0,.92-2.59l-.78-.63a5.1,5.1,0,1,1,4,8.32Z"/><ellipse class="cls-2" cx="154.95" cy="137.88" rx="9.64" ry="9.65"/><ellipse class="cls-3" cx="154.95" cy="137.88" rx="9.55" ry="9.56"/><ellipse class="cls-4" cx="154.95" cy="137.88" rx="9.46" ry="9.47"/><ellipse class="cls-5" cx="154.95" cy="137.88" rx="9.37" ry="9.38"/><ellipse class="cls-6" cx="154.95" cy="137.88" rx="9.29" ry="9.29"/><ellipse class="cls-7" cx="154.95" cy="137.88" rx="9.2" ry="9.2"/><ellipse class="cls-8" cx="154.95" cy="137.88" rx="9.11" ry="9.12"/><ellipse class="cls-9" cx="154.95" cy="137.88" rx="9.02" ry="9.03"/><ellipse class="cls-10" cx="154.95" cy="137.88" rx="8.93" ry="8.94"/><ellipse class="cls-11" cx="154.95" cy="137.88" rx="8.84" ry="8.85"/><ellipse class="cls-12" cx="154.95" cy="137.88" rx="8.76" ry="8.76"/><ellipse class="cls-13" cx="154.95" cy="137.88" rx="8.67" ry="8.67"/><ellipse class="cls-14" cx="154.95" cy="137.88" rx="8.58" ry="8.59"/><ellipse class="cls-15" cx="154.95" cy="137.88" rx="8.49" ry="8.5"/><ellipse class="cls-16" cx="154.95" cy="137.88" rx="8.4" ry="8.41"/><ellipse class="cls-17" cx="154.95" cy="137.88" rx="8.31" ry="8.32"/><ellipse class="cls-18" cx="154.95" cy="137.88" rx="8.23" ry="8.23"/><ellipse class="cls-19" cx="154.95" cy="137.88" rx="8.14" ry="8.14"/><ellipse class="cls-20" cx="154.95" cy="137.88" rx="8.05" ry="8.06"/><ellipse class="cls-21" cx="154.95" cy="137.88" rx="7.96" ry="7.97"/><ellipse class="cls-22" cx="154.95" cy="137.88" rx="7.87" ry="7.88"/><ellipse class="cls-23" cx="154.95" cy="137.88" rx="7.79" ry="7.79"/><ellipse class="cls-24" cx="154.95" cy="137.88" rx="7.7" ry="7.7"/><ellipse class="cls-25" cx="154.95" cy="137.88" rx="7.61" ry="7.61"/><ellipse class="cls-25" cx="154.95" cy="137.88" rx="7.52" ry="7.53"/><ellipse class="cls-26" cx="154.95" cy="137.88" rx="7.43" ry="7.44"/><path class="cls-27" d="M156.33,148l-.14-1a9.19,9.19,0,1,0-10.35-10.24,8.62,8.62,0,0,0-.08,1.14h-1a10.36,10.36,0,0,1,.08-1.25A10.19,10.19,0,1,1,156.33,148Z"/><path class="cls-26" d="M195.87,55.06,179.72,38.91c1.52-1,5.45-5.28,12.94,1.43C200.94,47.76,196.86,54,195.87,55.06Z"/><path class="cls-28" d="M195.88,55.78l-16.95-17,.53-.33.51-.37c1.8-1.33,6-4.44,13,1.85,3.35,3,5.12,6.16,5.25,9.38a8.91,8.91,0,0,1-2,6.06ZM180.5,39l15.33,15.33a7.94,7.94,0,0,0,1.41-4.91c-.12-2.95-1.77-5.87-4.92-8.69-6.41-5.75-10-3.07-11.75-1.79Z"/><path class="cls-26" d="M198.34,69.05,166.7,37.42a.11.11,0,0,1,.09-.18L180,39.18,196.09,55.3,198.51,69A.1.1,0,0,1,198.34,69.05Z"/><path class="cls-28" d="M198.41,69.58a.61.61,0,0,1-.42-.17L166.35,37.77a.6.6,0,0,1,.51-1l13.35,2,16.35,16.35L199,68.88a.62.62,0,0,1-.32.64A.67.67,0,0,1,198.41,69.58Zm-30.5-31.67,29.89,29.9-2.17-12.27-15.9-15.89Zm-.85-.85Z"/><rect class="cls-28" x="149.9" y="51.8" width="21.77" height="1" transform="translate(-8.01 42.56) rotate(-14.72)"/><rect class="cls-28" x="169.83" y="73.86" width="23.27" height="1" transform="translate(47.01 217.12) rotate(-69)"/><rect class="cls-28" x="170.82" y="56.03" width="3" height="1" transform="translate(-4.2 98.13) rotate(-31.42)"/><rect class="cls-28" x="158.63" y="61.44" width="9.67" height="1" transform="translate(-8.32 94.31) rotate(-31.42)"/><rect class="cls-28" x="172.13" y="73.22" width="3" height="1" transform="translate(16.71 178.41) rotate(-56.71)"/><rect class="cls-28" x="174.5" y="64.55" width="9.67" height="1" transform="translate(26.53 179.26) rotate(-56.71)"/></g></g></g></g></svg>