<svg xmlns="http://www.w3.org/2000/svg" viewBox="0 0 226.68 239.8"><defs><style>.cls-1{fill:#f0f8fa;}.cls-2{fill:#fff;}.cls-3{fill:#999898;}.cls-4{fill:#17838e;}.cls-5{fill:#cae1e8;}.cls-6{fill:#cbe2e8;}.cls-7{fill:#cce2e9;}.cls-8{fill:#cce3e9;}.cls-9{fill:#cde3ea;}.cls-10{fill:#cee4ea;}.cls-11{fill:#cfe4ea;}.cls-12{fill:#d0e5eb;}.cls-13{fill:#d1e5eb;}.cls-14{fill:#d1e6ec;}.cls-15{fill:#d2e6ec;}.cls-16{fill:#d3e7ec;}.cls-17{fill:#d4e7ed;}.cls-18{fill:#d5e8ed;}.cls-19{fill:#d6e8ee;}.cls-20{fill:#d7e9ee;}.cls-21{fill:#d8eaef;}.cls-22{fill:#d9eaef;}.cls-23{fill:#daebf0;}.cls-24{fill:#dbebf0;}.cls-25{fill:#dcecf0;}.cls-26{fill:#ddecf1;}.cls-27{fill:#ddedf1;}.cls-28{fill:#deedf2;}.cls-29{fill:#dfeef2;}.cls-30{fill:#e0eff2;}.cls-31{fill:#e1eff3;}.cls-32{fill:#e2f0f3;}.cls-33{fill:#e2f0f4;}.cls-34{fill:#e3f1f4;}.cls-35{fill:#e4f1f4;}.cls-36{fill:#e5f2f5;}.cls-37{fill:#e6f2f5;}.cls-38{fill:#e7f3f6;}.cls-39{fill:#e8f4f6;}.cls-40{fill:#e9f4f7;}.cls-41{fill:#eaf4f7;}.cls-42{fill:#ebf5f8;}.cls-43{fill:#ecf6f8;}.cls-44{fill:#edf6f9;}.cls-45{fill:#eef7f9;}.cls-46{fill:#eff7f9;}.cls-47{fill:#c1bfbf;}</style></defs><g id="Layer_2" data-name="Layer 2"><g id="Layer_1-2" data-name="Layer 1"><rect class="cls-1" x="-13.37" y="39.76" width="185.67" height="54.11" rx="27.06" transform="translate(-24.23 61.62) rotate(-37.19)"/><rect class="cls-1" x="41.57" y="68.9" width="199.94" height="54.11" rx="27.06" transform="translate(-29.22 105.07) rotate(-37.19)"/><rect class="cls-1" x="46.49" y="148.51" width="177.14" height="54.11" rx="27.06" transform="translate(-78.65 117.34) rotate(-37.19)"/><g id="No_pinned_post" data-name="No pinned post"><rect class="cls-2" x="73.67" y="19.22" width="96.93" height="163.87" rx="1.99"/><path class="cls-3" d="M168.61,183.6h-93a2.5,2.5,0,0,1-2.49-2.49V21.21a2.5,2.5,0,0,1,2.49-2.49h93a2.5,2.5,0,0,1,2.49,2.49v159.9A2.5,2.5,0,0,1,168.61,183.6Zm-93-163.88a1.49,1.49,0,0,0-1.49,1.49v159.9a1.49,1.49,0,0,0,1.49,1.49h93a1.49,1.49,0,0,0,1.49-1.49V21.21a1.49,1.49,0,0,0-1.49-1.49Z"/><rect class="cls-2" x="83.43" y="32.08" width="78.45" height="127.31" rx="1.99"/><path class="cls-3" d="M159.9,159.89H85.42a2.5,2.5,0,0,1-2.49-2.49V34.06a2.49,2.49,0,0,1,2.49-2.48H159.9a2.48,2.48,0,0,1,2.48,2.48V157.4A2.49,2.49,0,0,1,159.9,159.89ZM85.42,32.58a1.49,1.49,0,0,0-1.49,1.48V157.4a1.49,1.49,0,0,0,1.49,1.49H159.9a1.49,1.49,0,0,0,1.48-1.49V34.06a1.48,1.48,0,0,0-1.48-1.48Z"/><circle class="cls-2" cx="122.66" cy="170.69" r="4.77"/><path class="cls-3" d="M122.66,176a5.27,5.27,0,1,1,5.26-5.26A5.27,5.27,0,0,1,122.66,176Zm0-9.53a4.27,4.27,0,1,0,4.26,4.27A4.27,4.27,0,0,0,122.66,166.42Z"/><rect class="cls-2" x="63.38" y="70.28" width="116.98" height="40.82" rx="2.3"/><path class="cls-4" d="M178.06,111.6H65.68a2.81,2.81,0,0,1-2.8-2.8V72.58a2.8,2.8,0,0,1,2.8-2.8H178.06a2.8,2.8,0,0,1,2.8,2.8V108.8A2.8,2.8,0,0,1,178.06,111.6ZM65.68,70.78a1.8,1.8,0,0,0-1.8,1.8V108.8a1.81,1.81,0,0,0,1.8,1.8H178.06a1.8,1.8,0,0,0,1.8-1.8V72.58a1.79,1.79,0,0,0-1.8-1.8Z"/><rect class="cls-4" x="105.31" y="82.79" width="59.62" height="1"/><rect class="cls-4" x="105.31" y="90.19" width="52.56" height="1"/><rect class="cls-4" x="105.31" y="97.58" width="52.56" height="1"/><circle class="cls-5" cx="86.74" cy="90.69" r="9.47"/><circle class="cls-6" cx="86.74" cy="90.69" r="9.43"/><circle class="cls-7" cx="86.74" cy="90.69" r="9.38"/><circle class="cls-8" cx="86.74" cy="90.69" r="9.34"/><circle class="cls-9" cx="86.74" cy="90.69" r="9.29"/><circle class="cls-10" cx="86.74" cy="90.69" r="9.25"/><circle class="cls-11" cx="86.74" cy="90.69" r="9.2"/><circle class="cls-12" cx="86.74" cy="90.69" r="9.16"/><circle class="cls-13" cx="86.74" cy="90.69" r="9.11"/><circle class="cls-14" cx="86.74" cy="90.69" r="9.07"/><circle class="cls-15" cx="86.74" cy="90.69" r="9.02"/><circle class="cls-16" cx="86.74" cy="90.69" r="8.98"/><circle class="cls-17" cx="86.74" cy="90.69" r="8.94"/><circle class="cls-18" cx="86.74" cy="90.69" r="8.89"/><circle class="cls-19" cx="86.74" cy="90.69" r="8.85"/><circle class="cls-20" cx="86.74" cy="90.69" r="8.8"/><circle class="cls-20" cx="86.74" cy="90.69" r="8.76"/><circle class="cls-21" cx="86.74" cy="90.69" r="8.71"/><circle class="cls-22" cx="86.74" cy="90.69" r="8.67"/><circle class="cls-23" cx="86.74" cy="90.69" r="8.62"/><circle class="cls-24" cx="86.74" cy="90.69" r="8.58"/><circle class="cls-25" cx="86.74" cy="90.69" r="8.53"/><circle class="cls-26" cx="86.74" cy="90.69" r="8.49"/><circle class="cls-27" cx="86.74" cy="90.69" r="8.44"/><circle class="cls-28" cx="86.74" cy="90.69" r="8.4"/><circle class="cls-29" cx="86.74" cy="90.69" r="8.35"/><circle class="cls-30" cx="86.74" cy="90.69" r="8.31"/><circle class="cls-31" cx="86.74" cy="90.69" r="8.26"/><circle class="cls-32" cx="86.74" cy="90.69" r="8.22"/><circle class="cls-33" cx="86.74" cy="90.69" r="8.17"/><circle class="cls-34" cx="86.74" cy="90.69" r="8.13"/><circle class="cls-35" cx="86.74" cy="90.69" r="8.09"/><circle class="cls-36" cx="86.74" cy="90.69" r="8.04"/><circle class="cls-37" cx="86.74" cy="90.69" r="8"/><circle class="cls-38" cx="86.74" cy="90.69" r="7.95"/><circle class="cls-38" cx="86.74" cy="90.69" r="7.91"/><circle class="cls-39" cx="86.74" cy="90.69" r="7.86"/><circle class="cls-40" cx="86.74" cy="90.69" r="7.82"/><circle class="cls-41" cx="86.74" cy="90.69" r="7.77"/><circle class="cls-42" cx="86.74" cy="90.69" r="7.73"/><circle class="cls-42" cx="86.74" cy="90.69" r="7.68"/><circle class="cls-43" cx="86.74" cy="90.69" r="7.64"/><circle class="cls-44" cx="86.74" cy="90.69" r="7.59"/><circle class="cls-45" cx="86.74" cy="90.69" r="7.55"/><circle class="cls-46" cx="86.74" cy="90.69" r="7.5"/><circle class="cls-1" cx="86.74" cy="90.69" r="7.46"/><circle class="cls-1" cx="86.74" cy="90.69" r="7.41"/><path class="cls-4" d="M86.74,100.66a10,10,0,1,1,10-10A10,10,0,0,1,86.74,100.66Zm0-19a9,9,0,1,0,9,9A9,9,0,0,0,86.74,81.71Z"/><rect class="cls-47" x="95.59" y="54.03" width="52.56" height="1"/><rect class="cls-47" x="93.61" y="123.59" width="52.56" height="1"/><rect class="cls-47" x="93.61" y="132.61" width="42.82" height="1"/><rect class="cls-47" x="93.61" y="141.63" width="52.56" height="1"/><rect class="cls-47" x="95.59" y="61.9" width="58.1" height="1"/><rect class="cls-47" x="93.61" y="116.26" width="58.1" height="1"/></g></g></g></svg>